<?xml version="1.0" encoding="UTF-8" standalone="no"?>
<!DOCTYPE svg PUBLIC "-//W3C//DTD SVG 1.1//EN" "http://www.w3.org/Graphics/SVG/1.1/DTD/svg11.dtd">
<svg width="100%" height="100%" viewBox="0 0 264 61" version="1.1" xmlns="http://www.w3.org/2000/svg" xmlns:xlink="http://www.w3.org/1999/xlink" xml:space="preserve" xmlns:serif="http://www.serif.com/" style="fill-rule:evenodd;clip-rule:evenodd;stroke-linejoin:round;stroke-miterlimit:2;">
    <path d="M271.42,37.8C268.45,37.8 266.26,40.2 266.26,43.13C266.26,46.1 268.45,48.46 271.47,48.46C274.4,48.5 276.55,46.1 276.55,43.13C276.54,40.19 274.39,37.8 271.42,37.8ZM271.42,36.45C275.28,36.45 278.25,39.42 278.25,43.12C278.25,46.9 275.28,49.83 271.42,49.83C267.6,49.83 264.55,46.9 264.55,43.12C264.55,39.42 267.6,36.45 271.42,36.45ZM270.4,40.92L270.4,42.83L271.13,42.83C271.99,42.83 272.67,42.55 272.67,41.85C272.67,41.24 272.22,40.84 271.25,40.84C270.85,40.84 270.57,40.88 270.4,40.92ZM270.36,43.93L270.36,46.57L268.82,46.57L268.82,39.95C269.43,39.82 270.28,39.71 271.39,39.71C272.65,39.71 273.22,39.91 273.71,40.24C274.07,40.52 274.36,41.05 274.36,41.66C274.36,42.43 273.79,43.01 272.97,43.24C273.62,43.52 273.98,44.05 274.19,44.95C274.39,45.96 274.51,46.37 274.68,46.58L273.01,46.58C272.81,46.34 272.69,45.77 272.48,44.99C272.36,44.26 271.95,43.94 271.09,43.94L270.36,43.93ZM64.75,0.51L113.13,50.2L89.57,50.2L56.48,13.46L56.17,13.46L43.07,28.71L55.57,28.71L63.58,37.37L35.88,37.37L23.56,50.2L0,50.2L48.06,0.51L64.75,0.51ZM214.38,0.51L262.75,50.21L239.19,50.21L206.1,13.47L205.8,13.47L192.69,28.72L205.19,28.72L213.2,37.38L185.5,37.38L173.18,50.21L149.62,50.21L197.68,0.51L214.38,0.51ZM121.71,59.75L113.59,50.27C115.09,51.14 117.12,51.59 119.7,51.59C127.46,51.59 128.52,47.88 128.52,45.97L128.52,0.72L146.54,0.72L146.54,45.4C146.52,57.14 129.88,59.48 121.71,59.75Z" style="fill:rgb(19,159,218);fill-rule:nonzero;"/>
</svg>
