<?xml version="1.0" encoding="UTF-8" standalone="no"?>
<!DOCTYPE svg PUBLIC "-//W3C//DTD SVG 1.1//EN" "http://www.w3.org/Graphics/SVG/1.1/DTD/svg11.dtd">
<svg width="100%" height="100%" viewBox="0 0 264 72" version="1.1" xmlns="http://www.w3.org/2000/svg" xmlns:xlink="http://www.w3.org/1999/xlink" xml:space="preserve" xmlns:serif="http://www.serif.com/" style="fill-rule:evenodd;clip-rule:evenodd;stroke-linejoin:round;stroke-miterlimit:2;">
    <path d="M271.42,37.8C268.45,37.8 266.26,40.2 266.26,43.13C266.26,46.1 268.45,48.46 271.47,48.46C274.4,48.5 276.55,46.1 276.55,43.13C276.54,40.19 274.39,37.8 271.42,37.8ZM271.42,36.45C275.28,36.45 278.25,39.42 278.25,43.12C278.25,46.9 275.28,49.83 271.42,49.83C267.6,49.83 264.55,46.9 264.55,43.12C264.55,39.42 267.6,36.45 271.42,36.45ZM270.4,40.92L270.4,42.83L271.13,42.83C271.99,42.83 272.67,42.55 272.67,41.85C272.67,41.24 272.22,40.84 271.25,40.84C270.85,40.84 270.57,40.88 270.4,40.92ZM270.36,43.93L270.36,46.57L268.82,46.57L268.82,39.95C269.43,39.82 270.28,39.71 271.39,39.71C272.65,39.71 273.22,39.91 273.71,40.24C274.07,40.52 274.36,41.05 274.36,41.66C274.36,42.43 273.79,43.01 272.97,43.24C273.62,43.52 273.98,44.05 274.19,44.95C274.39,45.96 274.51,46.37 274.68,46.58L273.01,46.58C272.81,46.34 272.69,45.77 272.48,44.99C272.36,44.26 271.95,43.94 271.09,43.94L270.36,43.93ZM64.75,0.51L113.13,50.2L89.57,50.2L56.48,13.46L56.17,13.46L43.07,28.71L55.57,28.71L63.58,37.37L35.88,37.37L23.56,50.2L0,50.2L48.06,0.51L64.75,0.51ZM214.38,0.51L262.75,50.21L239.19,50.21L206.1,13.47L205.8,13.47L192.69,28.72L205.19,28.72L213.2,37.38L185.5,37.38L173.18,50.21L149.62,50.21L197.68,0.51L214.38,0.51ZM121.71,59.75L113.59,50.27C115.09,51.14 117.12,51.59 119.7,51.59C127.46,51.59 128.52,47.88 128.52,45.97L128.52,0.72L146.54,0.72L146.54,45.4C146.52,57.14 129.88,59.48 121.71,59.75Z" style="fill:rgb(19,159,218);fill-rule:nonzero;"/>
    <path d="M258.86,71.64C257.18,71.64 255.97,71.25 254.91,70.17L256.04,69.06C256.85,69.88 257.75,70.12 258.89,70.12C260.34,70.12 261.19,69.5 261.19,68.41C261.19,67.92 261.05,67.51 260.75,67.25C260.47,66.99 260.18,66.87 259.53,66.78L258.21,66.59C257.3,66.46 256.58,66.15 256.09,65.69C255.54,65.17 255.27,64.47 255.27,63.55C255.27,61.61 256.68,60.27 259.01,60.27C260.48,60.27 261.52,60.65 262.47,61.54L261.39,62.6C260.7,61.94 259.9,61.74 258.96,61.74C257.64,61.74 256.92,62.49 256.92,63.48C256.92,63.89 257.05,64.25 257.34,64.51C257.62,64.76 258.08,64.95 258.6,65.03L259.87,65.22C260.9,65.38 261.48,65.63 261.96,66.05C262.57,66.59 262.87,67.39 262.87,68.34C262.87,70.41 261.19,71.64 258.86,71.64ZM153.8,71.55L152.48,71.55L148.81,60.39L150.57,60.39L153.14,68.51L155.71,60.39L157.49,60.39L153.8,71.55ZM159.03,71.55L159.03,60.39L160.73,60.39L160.73,71.55L159.03,71.55ZM170.45,70.49C169.75,71.19 168.72,71.54 167.56,71.54L163.64,71.54L163.64,60.39L167.56,60.39C168.72,60.39 169.74,60.73 170.45,61.44C171.66,62.65 171.58,64.28 171.58,65.89C171.58,67.5 171.66,69.28 170.45,70.49ZM169.29,62.66C168.82,62.14 168.2,61.91 167.4,61.91L165.34,61.91L165.34,70.03L167.4,70.03C168.2,70.03 168.82,69.8 169.29,69.28C169.87,68.64 169.88,67.43 169.88,65.9C169.88,64.35 169.87,63.3 169.29,62.66ZM174.08,71.55L174.08,60.39L181.21,60.39L181.21,61.91L175.77,61.91L175.77,65.17L180.41,65.17L180.41,66.67L175.77,66.67L175.77,70.03L181.21,70.03L181.21,71.55L174.08,71.55ZM190.09,70.44C189.32,71.21 188.33,71.63 187.14,71.63C185.95,71.63 184.97,71.21 184.2,70.44C183.11,69.35 183.12,68.11 183.12,65.95C183.12,63.8 183.1,62.57 184.2,61.46C184.97,60.69 185.94,60.27 187.14,60.27C188.33,60.27 189.32,60.69 190.09,61.46C191.19,62.56 191.15,63.79 191.15,65.95C191.15,68.11 191.18,69.35 190.09,70.44ZM188.8,62.5C188.41,62.08 187.8,61.81 187.14,61.81C186.48,61.81 185.87,62.07 185.48,62.5C184.93,63.09 184.83,63.72 184.83,65.96C184.83,68.2 184.94,68.83 185.48,69.42C185.87,69.84 186.48,70.11 187.14,70.11C187.79,70.11 188.41,69.85 188.8,69.42C189.35,68.83 189.45,68.2 189.45,65.96C189.46,63.72 189.35,63.1 188.8,62.5ZM201.17,71.64C199.49,71.64 198.28,71.25 197.22,70.17L198.35,69.06C199.17,69.88 200.06,70.12 201.21,70.12C202.66,70.12 203.51,69.5 203.51,68.41C203.51,67.92 203.37,67.51 203.07,67.25C202.79,66.99 202.5,66.87 201.85,66.78L200.53,66.59C199.62,66.46 198.9,66.15 198.41,65.69C197.86,65.17 197.59,64.47 197.59,63.55C197.59,61.61 199,60.27 201.33,60.27C202.8,60.27 203.84,60.65 204.79,61.54L203.71,62.6C203.02,61.94 202.22,61.74 201.28,61.74C199.96,61.74 199.24,62.49 199.24,63.48C199.24,63.89 199.37,64.25 199.66,64.51C199.94,64.76 200.4,64.95 200.92,65.03L202.19,65.22C203.22,65.38 203.8,65.63 204.28,66.05C204.89,66.59 205.19,67.39 205.19,68.34C205.19,70.41 203.51,71.64 201.17,71.64ZM210.8,66.95L210.8,71.54L209.1,71.54L209.1,66.95L205.76,60.39L207.61,60.39L209.94,65.3L212.27,60.39L214.12,60.39L210.8,66.95ZM218.63,71.64C216.95,71.64 215.74,71.25 214.68,70.17L215.81,69.06C216.63,69.88 217.52,70.12 218.67,70.12C220.12,70.12 220.97,69.5 220.97,68.41C220.97,67.92 220.83,67.51 220.53,67.25C220.25,66.99 219.96,66.87 219.31,66.78L217.99,66.59C217.08,66.46 216.36,66.15 215.87,65.69C215.32,65.17 215.05,64.47 215.05,63.55C215.05,61.61 216.46,60.27 218.79,60.27C220.26,60.27 221.3,60.65 222.25,61.54L221.17,62.6C220.48,61.94 219.68,61.74 218.74,61.74C217.42,61.74 216.7,62.49 216.7,63.48C216.7,63.89 216.83,64.25 217.12,64.51C217.4,64.76 217.86,64.95 218.38,65.03L219.65,65.22C220.68,65.38 221.26,65.63 221.74,66.05C222.35,66.59 222.65,67.39 222.65,68.34C222.65,70.41 220.97,71.64 218.63,71.64ZM228.69,61.9L228.69,71.54L227,71.54L227,61.9L223.93,61.9L223.93,60.38L231.77,60.38L231.77,61.9L228.69,61.9ZM233.7,71.55L233.7,60.39L240.83,60.39L240.83,61.91L235.39,61.91L235.39,65.17L240.03,65.17L240.03,66.67L235.39,66.67L235.39,70.03L240.83,70.03L240.83,71.55L233.7,71.55ZM251.3,71.55L251.3,64.09L248.73,69.53L247.47,69.53L244.84,64.09L244.84,71.55L243.14,71.55L243.14,60.39L244.84,60.39L248.1,67.33L251.3,60.39L253,60.39L253,71.55L251.3,71.55Z" style="fill:white;fill-rule:nonzero;"/>
</svg>
