<?xml version="1.0" encoding="UTF-8" standalone="no"?>
<!-- Created with Inkscape (http://www.inkscape.org/) by Marsupilami -->
<svg
   xmlns:svg="http://www.w3.org/2000/svg"
   xmlns="http://www.w3.org/2000/svg"
   version="1.0"
   width="1024"
   height="301"
   viewBox="0 0 205.3875 60.310001"   
   id="svg2440">
  <defs
     id="defs2442" />
  <g
     transform="translate(-220.02589,-359.18495)"
     id="layer1">
    <path
       d="M 398.67964,370.91995 L 396.31464,370.91995 C 396.43839,369.7212 396.59089,369.22995 396.99089,368.3387 C 397.38964,367.44745 397.81964,366.8337 398.67964,365.4212 L 398.67964,370.91995 z M 414.80714,369.32245 C 414.74589,369.99745 414.13214,370.7037 413.33339,370.7662 L 412.53464,370.7662 L 412.53464,364.0387 C 412.53464,363.26995 412.87214,362.1637 413.67089,362.1637 C 414.53089,362.1637 414.80714,363.23995 414.80714,364.0387 L 414.80714,369.32245 z M 405.46964,370.7962 L 404.67089,370.7962 L 404.67089,363.5162 C 404.67089,362.6862 405.06964,361.76495 405.83714,361.76495 C 406.72839,361.76495 407.00464,362.6862 406.94339,363.5162 L 406.94339,369.25995 C 406.88214,369.96745 406.26839,370.7662 405.46964,370.7962 z M 417.48089,363.0862 C 418.52464,363.6087 419.90714,364.4987 420.73714,365.4512 C 420.36839,365.48245 420.15339,365.48245 420.15339,366.21995 L 420.15339,376.1412 C 420.15339,376.6337 420.58339,376.7562 420.92089,376.8787 C 420.18339,377.79995 419.07714,378.6912 417.72589,379.4287 C 418.30964,377.9237 418.12589,377.24745 418.18714,375.4037 L 418.18714,367.29495 C 418.18714,364.22245 417.54214,363.17745 417.48089,363.0862 z M 408.54089,382.59245 C 399.90839,382.59245 392.81339,377.4937 392.81339,371.28745 C 392.81339,365.05245 399.90839,359.95245 408.54089,359.95245 C 417.17339,359.95245 424.26964,365.05245 424.26964,371.28745 C 424.26964,377.4937 417.17339,382.59245 408.54089,382.59245 z M 349.44589,385.97995 C 347.44964,386.3187 345.32964,386.3487 340.96839,386.28745 L 340.96839,373.04745 C 345.17589,373.01745 347.38839,372.92495 349.26214,373.4462 C 351.16714,373.9687 352.85589,376.4262 353.07089,379.89745 C 352.91714,383.27745 351.44339,385.6112 349.44589,385.97995 z M 398.71089,376.69495 C 398.71089,377.24745 398.34214,378.10745 397.72839,378.41495 C 398.83339,379.15245 400.12339,379.91995 401.13839,380.25745 C 401.01464,379.70495 400.89214,379.82745 400.83089,375.8037 L 400.83089,366.0962 C 400.89214,362.9937 400.95339,363.0862 401.10714,362.50245 C 400.06214,362.8712 399.10964,363.3937 398.15839,363.97745 C 398.61839,364.09995 398.67964,364.2837 398.43464,364.5912 C 397.11339,366.7112 395.70089,368.7387 394.93214,371.68745 C 394.53339,373.3462 394.65589,375.7112 396.03839,377.15495 C 396.49964,377.5862 397.20589,377.5237 397.66589,376.8787 C 398.12714,376.1412 398.06589,374.48245 397.94339,374.4212 C 397.81964,374.57495 397.54339,374.69745 397.20589,374.6362 C 396.89839,374.5137 396.83714,374.57495 396.56089,374.0837 C 396.31464,373.4687 396.22214,372.85495 396.22214,371.56495 L 398.71089,371.56495 L 398.71089,376.69495 z M 416.74339,375.9262 L 416.74339,373.71495 C 416.74339,372.3637 415.57589,371.59495 414.89964,371.1337 C 415.36089,370.7037 416.18964,370.4587 416.55839,369.56745 C 417.23464,367.72495 417.35714,364.95995 416.40464,363.26995 C 415.51464,361.8262 412.16589,361.11995 409.80089,361.11995 C 410.04589,361.33495 410.44589,361.8262 410.44589,362.93245 L 410.44589,377.98495 C 410.44589,378.8762 410.32339,380.44245 409.37089,381.5487 C 410.78339,381.5487 412.50339,381.11745 413.60964,380.84245 C 412.71839,379.9512 412.56464,379.7362 412.56464,378.1687 L 412.56464,371.59495 L 413.54839,371.59495 C 414.28589,371.59495 414.62339,371.9337 414.62339,372.76245 L 414.62339,373.6537 L 414.68464,377.33995 C 414.74589,378.2612 415.85214,379.27495 416.52839,379.82745 C 417.14214,378.8762 417.44964,377.9237 417.44964,376.93995 C 417.01964,376.7562 416.80464,376.5412 416.74339,375.9262 z M 408.87964,376.8787 L 408.87964,374.14495 C 408.87964,372.0862 407.64964,371.6262 406.66714,371.1962 C 408.23339,370.18245 409.21714,368.7387 409.27839,367.44745 C 409.33964,366.1887 409.40089,365.0212 409.27839,363.7312 C 409.21714,362.59495 408.81714,362.0412 407.98839,361.54995 C 407.61964,361.2737 406.72839,361.08995 405.86839,361.2112 C 404.63964,361.42745 403.34964,361.67245 402.05964,362.1637 C 402.67339,362.71745 402.55089,363.5462 402.55089,364.22245 L 402.55089,378.53745 C 402.55089,379.5512 402.39714,380.1662 402.12089,380.56495 C 403.41089,380.99495 404.11714,381.2412 405.40714,381.39495 C 404.79339,379.82745 404.63964,379.2137 404.63964,377.7087 L 404.63964,371.59495 L 405.40714,371.59495 C 405.68464,371.59495 406.26839,371.68745 406.32964,371.8712 C 406.75964,372.20995 406.66714,373.4687 406.66714,374.48245 L 406.66714,377.64745 C 406.72839,379.4287 406.75964,380.01245 407.89589,381.5487 C 408.38714,381.39495 409.67714,380.77995 409.73964,378.0462 C 408.94089,377.76995 408.87964,377.4937 408.87964,376.8787 z M 303.24464,385.97995 C 301.24839,386.3187 299.12839,386.3487 294.76589,386.28745 L 294.76589,373.04745 C 298.97464,373.01745 301.18589,372.92495 303.06089,373.4462 C 304.96464,373.9687 306.65464,376.4262 306.86964,379.89745 C 306.71589,383.27745 305.24089,385.6112 303.24464,385.97995 z M 408.60964,359.2237 C 399.36339,359.2237 391.77589,364.65995 391.77589,371.3262 C 391.77589,377.99245 399.36339,383.42995 408.60964,383.42995 C 417.82589,383.42995 425.41339,377.99245 425.41339,371.3262 C 425.41339,364.65995 417.82589,359.2237 408.60964,359.2237 z M 371.53339,359.19245 L 371.56464,418.0512 L 358.44714,397.92995 C 366.18839,393.6287 368.61464,387.57745 368.95339,378.60745 C 368.79964,373.3237 366.71089,366.9337 362.47089,363.64745 C 356.51214,359.19245 349.44589,359.19245 342.38089,359.19245 L 325.23964,359.19245 L 325.20839,417.86745 L 312.21464,397.92995 C 319.95589,393.6287 322.47464,387.69995 322.81339,378.72995 C 322.65964,373.4462 320.47839,366.9337 316.23839,363.64745 C 310.27964,359.19245 303.21339,359.19245 296.14839,359.19245 L 279.00714,359.19245 L 278.97714,419.46495 L 294.85839,419.4637 L 294.82714,401.1862 L 307.66839,419.4637 L 341.06089,419.49495 L 341.06089,401.1862 L 353.90089,419.4637 L 387.01589,419.4637 L 387.02714,359.18495 L 371.53339,359.19245 z M 261.18964,359.28495 L 220.02589,419.4337 L 237.19839,419.4337 L 243.46464,410.5562 L 261.25089,410.5562 L 261.28214,419.49495 L 275.90464,419.49495 L 275.90464,359.28495 L 261.18964,359.28495 z M 252.15839,398.26745 L 261.25089,385.1212 L 261.25089,398.2687 L 252.15839,398.26745 z "
       style="fill:#000000;fill-opacity:1;fill-rule:evenodd;stroke:none"
       id="path24846" />
  </g>
</svg>
