<?xml version="1.0" encoding="utf-8"?>
<!-- Generator: Adobe Illustrator 19.2.1, SVG Export Plug-In . SVG Version: 6.00 Build 0)  -->
<svg version="1.1" id="layer" xmlns="http://www.w3.org/2000/svg" xmlns:xlink="http://www.w3.org/1999/xlink" x="0px" y="0px"
	 viewBox="0 0 652 652" style="enable-background:new 0 0 652 652;" xml:space="preserve">
<style type="text/css">
	.st0{fill:#A7423B;}
	.st1{fill:#DE6D36;}
	.st2{fill:#BA683D;}
	.st3{fill:#FAA619;}
	.st4{fill:#D1D3D4;}
</style>
<g id="gn-logo">
	<path id="Rectangle-6" class="st0" d="M574,366h28c7.7,0,14,6.3,14,14v28c0,7.7-6.3,14-14,14h-28c-7.7,0-14-6.3-14-14v-28
		C560,372.3,566.3,366,574,366z"/>
	<path id="Rectangle-5" class="st1" d="M574,294h28c7.7,0,14,6.3,14,14v28c0,7.7-6.3,14-14,14h-28c-7.7,0-14-6.3-14-14v-28
		C560,300.3,566.3,294,574,294z"/>
	<path id="Rectangle-4" class="st2" d="M574,222h28c7.7,0,14,6.3,14,14v28c0,7.7-6.3,14-14,14h-28c-7.7,0-14-6.3-14-14v-28
		C560,228.3,566.3,222,574,222z"/>
	<path id="Rectangle-3" class="st3" d="M564,380v28c0,5.5,4.5,10,10,10h28c5.5,0,10-4.5,10-10v-28c0-5.5-4.5-10-10-10h-28
		C568.5,370,564,374.5,564,380z M556,380c0-9.9,8-18,18-18h28c9.9,0,18,8,18,18v28c0,9.9-8,18-18,18h-28c-9.9,0-18-8-18-18V380z"/>
	<path id="Rectangle-2" class="st3" d="M564,308v28c0,5.5,4.5,10,10,10h28c5.5,0,10-4.5,10-10v-28c0-5.5-4.5-10-10-10h-28
		C568.5,298,564,302.5,564,308z M556,308c0-9.9,8-18,18-18h28c9.9,0,18,8,18,18v28c0,9.9-8,18-18,18h-28c-9.9,0-18-8-18-18V308z"/>
	<path id="Rectangle-1" class="st3" d="M564,236v28c0,5.5,4.5,10,10,10h28c5.5,0,10-4.5,10-10v-28c0-5.5-4.5-10-10-10h-28
		C568.5,226,564,230.5,564,236z M556,236c0-9.9,8-18,18-18h28c9.9,0,18,8,18,18v28c0,9.9-8,18-18,18h-28c-9.9,0-18-8-18-18V236z"/>
	<path id="Fill-19" class="st4" d="M507.7,304.9v39.2h4v-27.5c3.2-5.6,7.4-8.4,12.4-8.4c6.9,0,10.3,4.5,10.3,13.6v22.3h4v-23.9
		c0-5-1.3-9-3.8-11.8c-2.6-2.8-6-4.3-10.3-4.3c-5.2,0-9.3,2.5-12.5,7.6h-0.2v-6.8H507.7"/>
	<path id="Fill-18" class="st4" d="M496.5,318.8c0,2.9-1,5.3-3,7.4c-2,2.1-4.4,3.1-7.1,3.1c-2.8,0-5.2-1-7.1-3.1
		c-2-2.1-2.9-4.6-2.9-7.6c0-2.8,1-5.3,2.9-7.3c1.9-2,4.3-3,7.1-3c2.8,0,5.2,1,7.2,3.1C495.5,313.5,496.5,315.9,496.5,318.8
		L496.5,318.8z M499.7,353.1c0,2.3-1.2,4.1-3.5,5.5c-2.3,1.4-5.4,2.1-9.3,2.1c-8.6,0-12.9-2.4-12.9-7.3c0-4.8,4.6-7.3,13.7-7.3
		C495.7,346.2,499.7,348.5,499.7,353.1L499.7,353.1z M503.7,304.9h-15.2c-5.2,0-9.2,1.3-11.9,3.9c-2.8,2.6-4.2,6-4.2,10.1
		c0,2.9,0.9,5.5,2.6,7.9c1.7,2.4,4.2,4.1,7.6,5.1v0.2c-5.1,1.5-7.6,3.6-7.6,6.4c0,2.7,2.1,4.6,6.2,5.6v0.2c-7.4,1.2-11,4.4-11,9.5
		c0,3.2,1.4,5.7,4.3,7.6c2.9,1.9,7,2.9,12.2,2.9c5.3,0,9.5-1,12.4-3c3-2,4.5-4.8,4.5-8.4c0-3-0.9-5.4-2.8-7.2
		c-1.9-1.8-5.5-2.9-10.8-3.2c-5.4-0.3-8.5-0.8-9.6-1.5c-1-0.7-1.5-1.6-1.5-2.7c0-1,0.4-1.8,1.2-2.6c0.8-0.7,2.8-1.5,5.9-2.4
		c3.1-0.8,5.6-1.7,7.5-2.6c1.9-0.9,3.5-2.3,4.9-4.2c1.4-1.9,2-4.5,2-7.8c0-3.6-1.7-7.1-5.2-10.4h8.6V304.9L503.7,304.9z"/>
	<polygon id="Fill-17" class="st4" points="460.7,291.7 464.8,291.7 464.8,284.6 460.7,284.6 	"/>
	<polygon id="Fill-16" class="st4" points="460.7,344.1 464.8,344.1 464.8,304.9 460.7,304.9 	"/>
	<path id="Fill-15" class="st4" d="M443,304.1c-3.4,0-6.3,1-8.7,3.1c-2.4,2.1-3.6,4.6-3.6,7.6c0,2.1,0.6,4,1.9,5.7
		c1.3,1.7,4.1,3.5,8.4,5.2c4.3,1.8,6.9,3.2,7.9,4.4c1,1.2,1.5,2.4,1.5,3.8c0,2-0.8,3.6-2.2,4.9c-1.5,1.3-3.4,1.9-5.8,1.9
		c-3.5,0-7.5-1.2-11.9-3.6v4.1c3.8,2.4,7.6,3.6,11.4,3.6c3.5,0,6.5-1,8.9-3.1c2.4-2.1,3.6-4.7,3.6-7.7c0-2.3-0.7-4.3-2-6.2
		c-1.3-1.8-4.1-3.6-8.4-5.4c-4.3-1.7-6.9-3.2-7.9-4.3c-1-1.1-1.4-2.3-1.4-3.7c0-1.9,0.8-3.4,2.3-4.7c1.6-1.3,3.5-1.9,5.8-1.9
		c3.1,0,6.5,1.3,10.4,4v-4.5C449.5,305.3,446.1,304.1,443,304.1"/>
	<path id="Fill-14" class="st4" d="M401.5,311.2c2.3-2,5-3,8.1-3c6.6,0,10.6,3.8,12,11.5H397C397.7,316.1,399.2,313.3,401.5,311.2
		L401.5,311.2z M400.8,336.3c-3-3-4.5-6.7-4.5-11.1c0-0.7,0-1.4,0.1-2h29.9c0-5.8-1.6-10.5-4.9-13.9c-3.2-3.4-7.2-5.1-11.9-5.1
		c-5,0-9.1,1.9-12.4,5.7c-3.3,3.8-4.9,8.5-4.9,14.3c0,6.1,1.8,11.1,5.4,15c3.6,3.9,8.1,5.9,13.5,5.9c5.4,0,10.2-1.7,14.6-5.2V335
		c-4.6,3.9-9.3,5.8-14.1,5.8C407.4,340.8,403.9,339.3,400.8,336.3L400.8,336.3z"/>
	<path id="Fill-13" class="st4" d="M381.8,337.3c-3.3,2.4-6.7,3.6-10.2,3.6c-4.5,0-8.3-1.6-11.3-4.7c-3-3.2-4.5-7.1-4.5-11.9
		c0-4.7,1.4-8.5,4.2-11.5c2.8-3,6.4-4.5,10.8-4.5c3.7,0,7.4,1.2,11,3.7V337.3L381.8,337.3z M381.8,284.6v22.7
		c-4-2.1-7.7-3.2-11.2-3.2c-5.5,0-10,1.9-13.7,5.8s-5.4,8.7-5.4,14.5c0,5.7,1.8,10.6,5.5,14.5c3.7,3.9,8.2,5.9,13.6,5.9
		c4,0,7.7-1.3,11.2-3.8v3h4.1v-59.5H381.8L381.8,284.6z"/>
	<path id="Fill-12" d="M340.8,304.1c-5.3,0-9.7,2-13.2,5.9c-3.4,3.9-5.2,9-5.2,15.1c0,5.9,1.7,10.7,5.1,14.3
		c3.4,3.6,7.9,5.5,13.4,5.5c3.2,0,6.7-0.7,10.5-2v-4.4c-3.6,1.5-7,2.3-10.2,2.3c-4.4,0-8-1.5-10.6-4.4c-2.6-2.9-4-6.9-4-11.8
		c0-4.9,1.3-8.8,4-11.9c2.6-3,6.1-4.6,10.3-4.6c2.9,0,6.2,0.8,9.8,2.5v-4.6C347.1,304.8,343.7,304.1,340.8,304.1"/>
	<polygon id="Fill-11" points="307,291.7 311.1,291.7 311.1,284.6 307,284.6 	"/>
	<polygon id="Fill-10" points="307,344.1 311.1,344.1 311.1,304.9 307,304.9 	"/>
	<path id="Fill-9" d="M295.2,318.8c0,2.9-1,5.3-3,7.4c-2,2.1-4.4,3.1-7.1,3.1c-2.8,0-5.2-1-7.1-3.1c-1.9-2.1-2.9-4.6-2.9-7.6
		c0-2.8,1-5.3,2.9-7.3c1.9-2,4.3-3,7.1-3c2.8,0,5.2,1,7.2,3.1C294.2,313.5,295.2,315.9,295.2,318.8L295.2,318.8z M298.4,353.1
		c0,2.3-1.2,4.1-3.5,5.5c-2.3,1.4-5.4,2.1-9.3,2.1c-8.6,0-12.9-2.4-12.9-7.3c0-4.8,4.6-7.3,13.7-7.3
		C294.4,346.2,298.4,348.5,298.4,353.1L298.4,353.1z M302.4,304.9h-15.2c-5.2,0-9.2,1.3-11.9,3.9c-2.8,2.6-4.2,6-4.2,10.1
		c0,2.9,0.9,5.5,2.6,7.9c1.7,2.4,4.2,4.1,7.6,5.1v0.2c-5.1,1.5-7.6,3.6-7.6,6.4c0,2.7,2.1,4.6,6.2,5.6v0.2c-7.4,1.2-11,4.4-11,9.5
		c0,3.2,1.4,5.7,4.3,7.6c2.9,1.9,7,2.9,12.2,2.9c5.3,0,9.5-1,12.5-3c3-2,4.5-4.8,4.5-8.4c0-3-0.9-5.4-2.8-7.2
		c-1.9-1.8-5.5-2.9-10.8-3.2c-5.3-0.3-8.5-0.8-9.6-1.5c-1-0.7-1.5-1.6-1.5-2.7c0-1,0.4-1.8,1.2-2.6c0.8-0.7,2.8-1.5,5.9-2.4
		c3.1-0.8,5.6-1.7,7.5-2.6c1.9-0.9,3.5-2.3,4.9-4.2c1.4-1.9,2-4.5,2-7.8c0-3.6-1.7-7.1-5.2-10.4h8.6V304.9L302.4,304.9z"/>
	<path id="Fill-8" d="M258.4,336.4c-3.6,3.4-7.1,5.1-10.5,5.1c-2.1,0-3.9-0.6-5.3-1.9c-1.4-1.3-2.1-2.8-2.1-4.6c0-3.3,1.7-5.9,5.1-8
		c3.4-2.1,7.7-3,12.9-2.9V336.4L258.4,336.4z M263.4,340.8c-0.6,0-0.9-0.7-0.9-2v-24.5c0-3.3-1.1-5.9-3.3-7.6
		c-2.2-1.7-5-2.6-8.5-2.6c-3.9,0-7.9,1.4-12.2,4.2v4.3c4.1-3.3,8-5,11.6-5c5.6,0,8.4,2.7,8.4,8v5c-7.1,0.4-12.5,1.8-16.3,4.2
		c-3.8,2.5-5.7,5.8-5.7,10.1c0,2.8,1,5.1,3,7.1c2,1.9,4.4,2.9,7.2,2.9c3.9,0,7.9-1.6,11.8-4.9c0.2,2,0.4,3.3,0.8,3.9
		c0.4,0.6,1,1,1.9,1c1.6,0,4.2-1.4,7.7-4.1v-3.5C266,339.7,264.2,340.8,263.4,340.8L263.4,340.8z"/>
	<path id="Fill-7" d="M175.6,304.9v39.2h4v-27.5c3.2-5.6,7-8.4,11.4-8.4c3,0,5.4,1.2,7.2,3.5c1.8,2.3,2.7,5.7,2.7,10v22.3h4.1v-26.7
		c1.8-3.2,3.6-5.5,5.3-7c1.7-1.4,3.8-2.2,6.1-2.2c3.1,0,5.6,1.2,7.3,3.6c1.7,2.4,2.6,5.8,2.6,10v22.2h4V320c0-4.8-1.2-8.6-3.6-11.5
		c-2.4-2.9-5.6-4.3-9.5-4.3c-5.2,0-9.6,3.1-13.1,9.4c-2.4-6.3-6.5-9.4-12.3-9.4c-5,0-9,2.6-12.1,7.7h-0.2v-6.9H175.6"/>
	<polyline id="Fill-6" points="167.1,304.9 146.2,323.5 170.1,344.1 175.7,344.1 151.7,323.5 172.4,304.9 167.1,304.9 	"/>
	<polygon id="Fill-5" points="141.6,344.1 145.6,344.1 145.6,284.6 141.6,284.6 	"/>
	<path id="Fill-4" d="M125.5,304.1c-5.3,0-9.8,2-13.2,5.9c-3.4,3.9-5.2,9-5.2,15.1c0,5.9,1.7,10.7,5.1,14.3
		c3.4,3.6,7.9,5.5,13.4,5.5c3.2,0,6.7-0.7,10.5-2v-4.4c-3.6,1.5-7,2.3-10.2,2.3c-4.4,0-8-1.5-10.6-4.4c-2.6-2.9-4-6.9-4-11.8
		c0-4.9,1.3-8.8,4-11.9c2.6-3,6.1-4.6,10.3-4.6c2.9,0,6.2,0.8,9.8,2.5v-4.6C131.8,304.8,128.4,304.1,125.5,304.1"/>
	<path id="Fill-3" d="M94.7,336.4c-3.6,3.4-7.1,5.1-10.5,5.1c-2.1,0-3.9-0.6-5.3-1.9c-1.4-1.3-2.1-2.8-2.1-4.6c0-3.3,1.7-5.9,5.1-8
		c3.4-2.1,7.7-3,12.9-2.9V336.4L94.7,336.4z M99.7,340.8c-0.6,0-0.9-0.7-0.9-2v-24.5c0-3.3-1.1-5.9-3.3-7.6c-2.2-1.7-5-2.6-8.5-2.6
		c-3.9,0-7.9,1.4-12.2,4.2v4.3c4.1-3.3,8-5,11.6-5c5.6,0,8.4,2.7,8.4,8v5c-7.1,0.4-12.5,1.8-16.3,4.2c-3.8,2.5-5.7,5.8-5.7,10.1
		c0,2.8,1,5.1,3,7.1c2,1.9,4.4,2.9,7.2,2.9c3.9,0,7.9-1.6,11.8-4.9c0.2,2,0.4,3.3,0.8,3.9c0.4,0.6,1,1,1.9,1c1.6,0,4.2-1.4,7.7-4.1
		v-3.5C102.3,339.7,100.5,340.8,99.7,340.8L99.7,340.8z"/>
	<polygon id="Fill-2" points="61.8,344.1 65.9,344.1 65.9,284.6 61.8,284.6 	"/>
	<path id="Fill-1" d="M47.6,337c-2.6,2.2-6.3,3.3-11.2,3.3H24.4v-24.2h10c11.3,0,17,4.1,17,12.2C51.4,331.9,50.1,334.8,47.6,337
		L47.6,337z M24.4,288.4h6c10.6,0,15.9,4,15.9,11.9c0,7.9-5.2,11.9-15.7,11.9h-6.2V288.4L24.4,288.4z M42.9,313.2
		c5.5-3.1,8.3-7.5,8.3-13.2c0-4.8-1.6-8.6-4.9-11.3s-8-4.1-14.3-4.1H20v59.5h16.8c5.9,0,10.6-1.4,14.1-4.3c3.5-2.9,5.2-6.7,5.2-11.5
		C56.2,320.3,51.7,315.2,42.9,313.2L42.9,313.2z"/>
</g>
</svg>
