<?xml version="1.0" encoding="UTF-8"?>
<svg width="145px" height="49px" viewBox="0 0 145 49" version="1.1" xmlns="http://www.w3.org/2000/svg" xmlns:xlink="http://www.w3.org/1999/xlink">
    <title>gf-logo-lg</title>
    <g id="gf-logo-lg" stroke="none" stroke-width="1" fill="none" fill-rule="evenodd">
        <path d="M140.289172,35 L134.710828,35 C132.662316,35.0022251 131.002223,36.6638647 131,38.7142857 L131,44.2857143 C131.002223,46.3361353 132.662316,47.9977749 134.710828,48 L140.289172,48 C142.337684,47.9977749 143.997777,46.3361353 144,44.2857143 L144,38.7142857 C143.997777,36.6638647 142.337684,35.0022251 140.289172,35 Z" id="ring-fill-3" fill="#B73935" fill-rule="nonzero"></path>
        <path d="M140.289172,18 L134.710828,18 C132.662316,18.0022251 131.002223,19.6638647 131,21.7142857 L131,27.2857143 C131.002223,29.3361353 132.662316,30.9977749 134.710828,31 L140.289172,31 C142.337684,30.9977749 143.997777,29.3361353 144,27.2857143 L144,21.7142857 C143.997777,19.6638647 142.337684,18.0022251 140.289172,18 Z" id="ring-fill-2" fill="#F1651F" fill-rule="nonzero"></path>
        <path d="M140.289172,1 L134.710828,1 C132.662316,1.00222509 131.002223,2.66386473 131,4.71428571 L131,10.2857143 C131.002223,12.3361353 132.662316,13.9977749 134.710828,14 L140.289172,14 C142.337684,13.9977749 143.997777,12.3361353 144,10.2857143 L144,4.71428571 C143.997777,2.66386473 142.337684,1.00222509 140.289172,1 Z" id="ring-fill-1" fill="#C96331" fill-rule="nonzero"></path>
        <path d="M140.718275,34 L134.281725,34 C131.918057,34.0025658 130.002565,35.9186522 130,38.283054 L130,44.716946 C130.002565,47.0813478 131.918057,48.9974342 134.281725,49 L140.718275,49 C143.081943,48.9974342 144.997435,47.0813478 145,44.716946 L145,38.283054 C144.997435,35.9186522 143.081943,34.0025658 140.718275,34 Z M143,44.6363636 C142.997502,45.9407265 141.942038,46.9974988 140.63929,47 L134.36071,47 C133.057962,46.9974988 132.002498,45.9407265 132,44.6363636 L132,38.3636364 C132.002498,37.0592735 133.057962,36.0025012 134.36071,36 L140.63929,36 C141.942038,36.0025012 142.997502,37.0592735 143,38.3636364 L143,44.6363636 Z" id="ring-outline-3" fill="#FFA200" fill-rule="nonzero"></path>
        <path d="M140.718275,17 L134.281725,17 C131.918057,17.0025674 130.002565,18.9198439 130,21.2857143 L130,27.7142857 C130.002565,30.0801561 131.918057,31.9974326 134.281725,32 L140.718275,32 C143.081943,31.9974326 144.997435,30.0801561 145,27.7142857 L145,21.2857143 C144.997435,18.9198439 143.081943,17.0025674 140.718275,17 Z M143,27.6363636 C142.997502,28.9407265 141.942038,29.9974988 140.63929,30 L134.36071,30 C133.057962,29.9974988 132.002498,28.9407265 132,27.6363636 L132,21.3636364 C132.002498,20.0592735 133.057962,19.0025012 134.36071,19 L140.63929,19 C141.942038,19.0025012 142.997502,20.0592735 143,21.3636364 L143,27.6363636 Z" id="ring-outline-2" fill="#FFA200" fill-rule="nonzero"></path>
        <path d="M140.718275,8.8817842e-16 L134.281725,8.8817842e-16 C131.918057,0.00256741449 130.002565,1.91984392 130,4.28571429 L130,10.7142857 C130.002565,13.0801561 131.918057,14.9974326 134.281725,15 L140.718275,15 C143.081943,14.9974326 144.997435,13.0801561 145,10.7142857 L145,4.28571429 C144.997435,1.91984392 143.081943,0.00256741449 140.718275,8.8817842e-16 Z M143,10.6363636 C142.997502,11.9407265 141.942038,12.9974988 140.63929,13 L134.36071,13 C133.057962,12.9974988 132.002498,11.9407265 132,10.6363636 L132,4.36363636 C132.002498,3.05927347 133.057962,2.00250118 134.36071,2 L140.63929,2 C141.942038,2.00250118 142.997502,3.05927347 143,4.36363636 L143,10.6363636 Z" id="ring-outline-1" fill="#FFA200" fill-rule="nonzero"></path>
        <path d="M118,20.1809653 L118,29 L118.917783,29 L118.917783,22.8151068 C119.657837,21.5573636 120.601843,20.928492 121.7498,20.928492 C123.320229,20.928492 124.105443,21.9444756 124.105443,23.9764429 L124.105443,29 L124.992634,29 L124.992634,23.6293769 C125.053092,22.6576347 124.739593,21.7001009 124.118555,20.9596389 C123.50932,20.3123915 122.655704,19.9637873 121.776022,20.0029828 C120.593332,20.0044328 119.503638,20.6561397 118.926524,21.7071656 L118.88719,21.7071656 L118.88719,20.1809653 L118,20.1809653 Z" id="Fill-19" fill="#A7A9AC" fill-rule="nonzero"></path>
        <path d="M117,20.0081992 L113.405009,20.0081992 C112.377743,19.9422554 111.363959,20.2759234 110.56542,20.9427969 C109.407358,22.0547798 109.244922,23.8815748 110.187719,25.1905436 C110.648379,25.7875708 111.288339,26.2114445 112.007968,26.3961747 L112.007968,26.4335586 C110.794468,26.7887057 110.187719,27.2918308 110.187719,27.9429339 C110.187719,28.594037 110.667051,29.0255096 111.625715,29.2373517 L111.625715,29.2794086 C109.875243,29.5691339 109,30.3168121 109,31.5224432 C108.998182,32.2684818 109.390028,32.9570034 110.023896,33.3215438 C111.883256,34.2407023 114.05205,34.2251763 115.898749,33.2794869 C116.486162,32.8886285 116.87179,32.247732 116.949377,31.5333915 C117.026963,30.8190509 116.78832,30.106655 116.299204,29.5924989 C115.856277,29.1656992 114.999243,28.9149155 113.728103,28.8401477 C112.456962,28.7653799 111.698525,28.6469975 111.452792,28.4850006 C111.223025,28.3544911 111.081488,28.1050754 111.084191,27.8354552 C111.08901,27.6010584 111.193828,27.3806604 111.37088,27.2326396 C111.798528,26.9547277 112.274453,26.764316 112.772472,26.671881 C113.383247,26.5200326 113.981271,26.3184563 114.560867,26.0690655 C115.023198,25.851554 115.421782,25.5131542 115.716725,25.0877378 C116.066086,24.5465348 116.236788,23.904346 116.203641,23.2559263 C116.145853,22.3000177 115.691917,21.415368 114.956771,20.8259722 L117,20.8259722 L117,20.0081992 Z M116.044369,31.3962725 C116.034639,31.9553463 115.717278,32.4604842 115.225257,32.7000363 C114.540242,33.0625872 113.774308,33.233432 113.004554,33.1953731 C110.95374,33.1953731 109.928333,32.6237108 109.928333,31.4803863 C109.928333,30.3370617 111.014415,29.7653995 113.186579,29.7653995 C115.091772,29.7653995 116.044369,30.3105815 116.044369,31.4009455 L116.044369,31.3962725 Z M115.279865,23.2839642 C115.274916,24.6486292 114.201488,25.7550892 112.872586,25.7653212 C112.23139,25.7773342 111.61503,25.5109251 111.175204,25.031662 C110.717583,24.5578117 110.4664,23.9138124 110.478959,23.2465803 C110.475253,22.6009986 110.724295,21.9809588 111.170125,21.5257756 C111.615956,21.0705925 112.221188,20.8184395 112.849833,20.8259722 C113.493488,20.8147255 114.113517,21.0748105 114.565417,21.5456125 C115.030453,21.9980864 115.28819,22.6309114 115.275314,23.2886372 L115.279865,23.2839642 Z" id="Fill-18" fill="#A7A9AC" fill-rule="nonzero"></path>
        <polygon id="Fill-17" fill="#A7A9AC" fill-rule="nonzero" points="106 15 106 17 107 17 107 15"></polygon>
        <polygon id="Fill-16" fill="#A7A9AC" fill-rule="nonzero" points="106 20 106 29 107 29 107 20"></polygon>
        <path d="M102.153324,20.0009947 C101.359557,19.9822744 100.585842,20.2283348 99.9791145,20.6924474 C99.4113758,21.0955502 99.0802832,21.7131834 99.0815929,22.3667195 C99.0795321,22.8241881 99.2487296,23.2687722 99.5615509,23.6278596 C99.881523,24.004752 100.580662,24.3874428 101.658968,24.7759319 C102.383011,24.9814527 103.058472,25.3073692 103.650794,25.7370076 C103.882276,25.9690631 104.007553,26.2722745 104.001163,26.5850155 C104.010278,27.0064703 103.800595,27.4073765 103.434813,27.6678565 C103.026857,27.9627718 102.516596,28.1168826 101.994938,28.1027324 C100.941558,28.0574102 99.9151014,27.786148 99,27.3112583 L99,28.2071026 C99.8572884,28.7137422 100.856285,28.988308 101.879748,28.9985767 C102.688723,29.0211195 103.478944,28.7752375 104.101954,28.307124 C104.682742,27.8924599 105.015052,27.2548441 104.999476,26.5850155 C105.007816,26.095982 104.839247,25.6179183 104.519518,25.223854 C104.199546,24.8179699 103.495607,24.4236824 102.407702,24.0409917 C101.68483,23.8454738 101.009097,23.5282779 100.415876,23.1060085 C100.187382,22.8872915 100.058769,22.5982916 100.055908,22.2971394 C100.05658,21.8870124 100.274358,21.5020729 100.641457,21.2621348 C101.052137,20.9717942 101.560523,20.8182498 102.081331,20.8272589 C103.024011,20.8789679 103.928905,21.1815132 104.682703,21.6970107 L104.682703,20.735935 C103.921427,20.2920481 103.043411,20.0398754 102.138926,20.0053435 L102.153324,20.0009947 Z" id="Fill-15" fill="#A7A9AC" fill-rule="nonzero"></path>
        <path d="M92.0310718,27.0631009 C91.3388411,26.4283921 90.953603,25.5388301 90.9700619,24.6130983 C90.9718247,24.4673153 90.9822883,24.3217553 91.0013997,24.1771548 L97.9942159,24.1771548 C98.0543121,23.0521027 97.6441147,21.9512827 96.8570998,21.1255502 C96.0961133,20.3841677 95.057006,19.9778796 93.9808133,20.00093 C92.9046206,20.0239804 91.8848635,20.4743663 91.158089,21.2476144 C90.3741742,22.1127764 89.9607892,23.2377167 90.0030655,24.3907671 C89.9581342,25.608648 90.4086037,26.7945873 91.2565793,27.6908596 C92.0699036,28.55163 93.2253724,29.0283961 94.4261784,28.9986901 C95.6634939,29.0062211 96.8665899,28.603406 97.8375266,27.8565181 L97.8375266,26.7884565 C96.9276576,27.5816924 95.7588298,28.0357276 94.5380993,28.0701304 C93.5968296,28.0790592 92.6921307,27.7156574 92.0310718,27.0631009 Z M92.1832842,21.544056 C92.7069175,21.1023117 93.379817,20.8647435 94.0725085,20.8770624 C95.6125397,20.8770624 96.5496905,21.7213397 96.8839608,23.4098942 L91.1267511,23.4098942 C91.2540565,22.6914005 91.6262556,22.0356324 92.1832842,21.5484154 L92.1832842,21.544056 Z" id="Fill-14" fill="#A7A9AC" fill-rule="nonzero"></path>
        <path d="M87.0470183,15 L87.0470183,20.2600539 C86.2486803,19.8073227 85.3571804,19.5571497 84.4463578,19.5302558 C83.2492507,19.4975457 82.0944537,19.9876511 81.2667833,20.8796937 C80.4212098,21.7825134 79.9651653,22.9990104 80.0020785,24.2532885 C79.9733214,25.509113 80.4373304,26.7237861 81.2890492,27.6222933 C82.1048279,28.5213918 83.2522274,29.0218001 84.4463578,28.9992708 C85.3833131,28.9966671 86.2947886,28.6845852 87.0470183,28.1088254 L87.0470183,28.806494 L88,28.806494 L88,15 L87.0470183,15 Z M87.0470183,27.21838 C86.3614153,27.7445802 85.5326184,28.0352165 84.6779235,28.0491564 C83.6878089,28.073692 82.7330978,27.6690924 82.0460908,26.9338046 C81.3456383,26.2022345 80.9659301,25.2072325 80.9951389,24.1798497 C80.961018,23.1905413 81.3158929,22.2289427 81.979293,21.5131034 C82.6333761,20.8166639 83.5420134,20.4367162 84.4819833,20.4666005 C85.3980857,20.4831353 86.2889794,20.7785721 87.0425651,21.3157366 L87.0470183,27.21838 Z" id="Fill-13" fill="#A7A9AC" fill-rule="nonzero"></path>
        <path d="M76.4284283,20.0043526 C75.2164471,19.9754509 74.0527622,20.4533016 73.2485279,21.3101335 C72.3968449,22.2281896 71.9513592,23.4202989 72.004219,24.6398749 C71.9514483,25.8055846 72.3964273,26.942498 73.2393108,27.7955121 C74.0884161,28.6058887 75.2590944,29.0418353 76.4652967,28.9968305 C77.3298398,28.9848375 78.1863179,28.8377627 79,28.5615702 L79,27.5822345 C78.2240846,27.9001733 77.3893325,28.0702766 76.5436421,28.0827839 C75.5843105,28.1242036 74.6524915,27.7737621 73.9858961,27.1208586 C73.317215,26.4023849 72.974561,25.4643449 73.031926,24.5092968 C72.9875898,23.5559948 73.3286123,22.6224214 73.9858961,21.8977349 C74.6147995,21.2309211 75.5249194,20.8625322 76.4699053,20.8922836 C77.2912407,20.9178843 78.0979447,21.1046539 78.8387007,21.4407116 L78.8387007,20.4352603 C78.0617735,20.1698186 77.2450549,20.0228929 76.4192112,20 L76.4284283,20.0043526 Z" id="Fill-12" fill="#FFFFFF" fill-rule="nonzero"></path>
        <polygon id="Fill-11" fill="#FFFFFF" fill-rule="nonzero" points="69 15 69 17 70 17 70 15"></polygon>
        <polygon id="Fill-10" fill="#FFFFFF" fill-rule="nonzero" points="69 20 69 29 70 29 70 20"></polygon>
        <path d="M68,20.0081992 L64.3847496,20.0081992 C63.3568992,19.9422554 62.3425386,20.2759234 61.5435452,20.9427969 C60.8878427,21.5487759 60.5262576,22.4209391 60.5554982,23.3260211 C60.5520439,24.0019222 60.7683527,24.6596969 61.1701819,25.1952166 C61.6304031,25.7930367 62.2710141,26.2171003 62.9914667,26.4008476 L62.9914667,26.4335586 C61.7772768,26.7887057 61.1701819,27.2918308 61.1701819,27.9429339 C61.1701819,28.594037 61.6558578,29.0255096 62.6272097,29.2373517 L62.6272097,29.2794086 C60.8757408,29.5691339 60,30.3168121 60,31.5224432 C59.9981813,32.2684818 60.3902503,32.9570034 61.0244791,33.3215438 C62.8848966,34.2407023 65.0549256,34.2251763 66.9026759,33.2794869 C67.4904227,32.8886285 67.8762701,32.247732 67.9539009,31.5333915 C68.0315317,30.8190509 67.7927531,30.106655 67.3033585,29.5924989 C66.8601792,29.1656992 66.0011399,28.9149155 64.7262405,28.8401477 C63.4513411,28.7653799 62.6924724,28.6469975 62.4496345,28.4850006 C62.2218857,28.3545496 62.0807704,28.1078067 62.0808243,27.8401281 C62.0843986,27.6054231 62.1895194,27.3845134 62.3676766,27.2373126 C62.795411,26.9590835 63.2716698,26.7686469 63.770066,26.676554 C64.3811519,26.5245725 64.9795055,26.3229997 65.5594783,26.0737384 C66.0220725,25.856227 66.420884,25.5178272 66.7159942,25.0924108 C67.0636553,24.550512 67.2328191,23.9084684 67.1986347,23.2605993 C67.1437527,22.304715 66.6929961,21.4186047 65.960161,20.8259722 L68,20.8259722 L68,20.0081992 Z M67.0438255,31.3962725 C67.0332458,31.9564073 66.7137676,32.4618172 66.2196941,32.7000363 C65.5342162,33.0623784 64.7679007,33.2332109 63.9977266,33.1953731 C61.9487811,33.1953731 60.9243084,32.6237108 60.9243084,31.4803863 C60.9243084,30.3370617 62.0110084,29.7653995 64.1844083,29.7653995 C66.0906864,29.7653995 67.0438255,30.3105815 67.0438255,31.4009455 L67.0438255,31.3962725 Z M66.2788858,23.2839642 C66.2714793,24.6475817 65.1988649,25.7525742 63.8702366,25.7653212 C63.2302512,25.7760115 62.6154451,25.5097111 62.1764417,25.031662 C61.7190038,24.5575129 61.4677567,23.9137144 61.4798003,23.2465803 C61.4760931,22.6009986 61.7252759,21.9809588 62.1713606,21.5257756 C62.6174452,21.0705925 63.2230213,20.8184395 63.8520238,20.8259722 C64.4961459,20.8141745 65.1167312,21.0743448 65.5685847,21.5456125 C66.0338856,21.9980864 66.2917685,22.6309114 66.2788858,23.2886372 L66.2788858,23.2839642 Z" id="Fill-9" fill="#FFFFFF" fill-rule="nonzero"></path>
        <path d="M58.6799964,28.0991198 C58.5296757,28.0991198 58.4592128,27.950797 58.4592128,27.6628761 L58.4592128,22.2447296 C58.4883433,21.596363 58.1743548,20.9757141 57.6183564,20.5826411 C57.0137096,20.1792541 56.2812671,19.9750419 55.5373542,20.002437 C54.4637044,20.0384526 53.422984,20.3560763 52.5356377,20.9185488 L52.5356377,21.8651976 C53.3189959,21.2202872 54.3098555,20.8338119 55.3541509,20.7658635 C56.7289589,20.7658635 57.416363,21.3562466 57.416363,22.5370128 L57.416363,23.6407094 C55.6814116,23.7221415 54.3457495,24.0347828 53.4093768,24.5786333 C52.5325151,25.0231295 51.990725,25.8801497 52.0001202,26.8078385 C52.0068873,27.4022578 52.2893744,27.965089 52.7752114,28.3521412 C53.2518512,28.7764908 53.8907514,29.0072287 54.5508746,28.9934194 C55.6242889,28.9535814 56.6505713,28.5732751 57.4586407,27.9158975 C57.4631987,28.2153854 57.5285402,28.5113882 57.6512391,28.7883848 C57.7536003,28.9339922 57.9346313,29.0146887 58.1209912,28.9977818 C58.5187148,28.9977818 59.145051,28.6982278 60,28.0991198 L60,27.3356934 C59.3110301,27.8446443 58.8710289,28.0991198 58.6799964,28.0991198 Z M57.4539431,27.121934 C56.7758819,27.7843324 55.8526428,28.1834049 54.8703061,28.2387178 C54.3889734,28.2487381 53.9205986,28.0933936 53.555,27.8024741 C53.2220785,27.5538514 53.0285732,27.1784023 53.0288771,26.7816639 C53.0581234,26.0188855 53.5440345,25.3352755 54.2878134,25.0105145 C55.2555849,24.5212268 56.3553613,24.3030204 57.4539431,24.3823236 L57.4539431,27.121934 Z" id="Fill-8" fill="#FFFFFF" fill-rule="nonzero"></path>
        <path d="M38,20.1758647 L38,29 L38.9521858,29 L38.9521858,22.8115298 C39.7139345,21.5530591 40.6207782,20.9238237 41.6727168,20.9238237 C42.3420322,20.9011081 42.9815854,21.1960412 43.3911856,21.7163041 C43.8574387,22.376394 44.0827426,23.1718637 44.0305104,23.9735375 L44.0305104,29 L45.0008331,29 L45.0008331,22.9851631 C45.3225651,22.3904365 45.7458568,21.8543355 46.2522773,21.4002024 C46.6589628,21.0749569 47.1697254,20.9014764 47.6941588,20.9104673 C48.3724316,20.8807814 49.020254,21.1887854 49.4171617,21.7296605 C49.8626061,22.39493 50.0787639,23.1830446 50.0338154,23.9779896 L50.0338154,29 L50.9950697,29 L50.9950697,23.5817494 C51.0431513,22.6412885 50.7382377,21.7161776 50.1381024,20.9817015 C49.5766528,20.3294127 48.7400867,19.967987 47.8709933,20.0022314 C46.6376859,20.0022314 45.5993499,20.7086371 44.7559853,22.1214485 C44.196765,20.7116052 43.2279537,20.0051995 41.8495514,20.0022314 C40.6706546,20.0022314 39.7154459,20.5780411 38.9839254,21.7296605 L38.9431174,21.7296605 L38.9431174,20.1758647 L38,20.1758647 Z" id="Fill-7" fill="#FFFFFF" fill-rule="nonzero"></path>
        <polygon id="Fill-6" fill="#FFFFFF" fill-rule="nonzero" points="34.9636364 20 30 24.2796567 35.6818182 29 37 29 31.3090909 24.2751136 36.2363636 20"></polygon>
        <polygon id="Fill-5" fill="#FFFFFF" fill-rule="nonzero" points="29 15 29 29 30 29 30 15"></polygon>
        <path d="M25.4284283,20.0043526 C24.2163232,19.9748501 23.0523813,20.4528024 22.2485279,21.3101229 C21.3968449,22.2281715 20.9513592,23.4202712 21.004219,24.6398373 C20.9514483,25.8055376 21.3964273,26.9424418 22.2393108,27.795449 C23.0880948,28.6062789 24.2589969,29.0423053 25.4652967,28.9967577 C26.3298398,28.9847647 27.1863179,28.8376911 28,28.5615009 L28,27.5821731 C27.2240846,27.9001093 26.3893325,28.0702112 25.5436421,28.0827184 C24.5843105,28.1241378 23.6524915,27.7736992 22.9858961,27.1208009 C22.3176513,26.4020935 21.9750609,25.4642352 22.031926,24.5092603 C21.9875898,23.555966 22.3286123,22.6224002 22.9858961,21.8977196 C23.6147995,21.2309111 24.5249194,20.8625252 25.4699053,20.8922764 C26.2912223,20.9180033 27.0978991,21.1047652 27.8387007,21.4406999 L27.8387007,20.4352568 C27.0617735,20.1698172 26.2450549,20.0228927 25.4192112,20 L25.4284283,20.0043526 Z" id="Fill-4" fill="#FFFFFF" fill-rule="nonzero"></path>
        <path d="M19.6808167,28.0995078 C19.5331938,28.0995078 19.4593824,27.9541189 19.4593824,27.663341 L19.4593824,22.2461488 C19.5012433,21.5956207 19.1946887,20.9676711 18.6396042,20.5669064 C18.0256317,20.1660183 17.2839096,19.9678523 16.5336223,20.0042512 C15.4598276,20.0481027 14.4212046,20.3716369 13.5371916,20.9376482 L13.5371916,21.8841303 C14.3230492,21.2396136 15.3167221,20.8532482 16.364013,20.7849898 C17.7428736,20.7849898 18.4323039,21.375269 18.4323039,22.5558272 L18.4323039,23.6418827 C16.6890974,23.7233005 15.3494982,24.0358867 14.4135063,24.5796414 C13.5348118,25.0247772 12.9917163,25.8811866 13.0000956,26.808454 C13.0015475,27.3991975 13.2759006,27.9611487 13.7539146,28.3524846 C14.2319594,28.7767595 14.872743,29.0074567 15.5348121,28.9936499 C16.6113905,28.953819 17.6406981,28.5735796 18.4511494,27.9163178 C18.4562786,28.2156967 18.5217916,28.5115522 18.6443155,28.7886515 C18.7476969,28.9334728 18.9287347,29.013921 19.1154524,28.9980115 C19.5143483,28.9980115 20.1425309,28.6985103 21,28.0995078 L21,27.3362159 C20.3089992,27.8450772 19.8692715,28.0995078 19.6808167,28.0995078 Z M18.4511494,27.1224941 C17.7710894,27.7847759 16.8451289,28.1837781 15.8598965,28.2390812 C15.377217,28.2486881 14.9076155,28.0934219 14.5407132,27.8029144 C14.2085738,27.5534749 14.0162971,27.1782211 14.0177431,26.782284 C14.0451331,26.0203088 14.5308154,25.3365979 15.2756868,25.0114466 C16.246311,24.522245 17.3493293,24.3040771 18.4511494,24.3833663 L18.4511494,27.1224941 Z" id="Fill-3" fill="#FFFFFF" fill-rule="nonzero"></path>
        <polygon id="Fill-2" fill="#FFFFFF" fill-rule="nonzero" points="10 15 10 29 11 29 11 15"></polygon>
        <path d="M5.71262832,21.7331212 C7.0868328,21.0041263 7.77393504,19.9649208 7.77393504,18.6155046 C7.8201617,17.5933827 7.37236558,16.6094262 6.56476205,15.9585508 C5.7427783,15.3195169 4.54947372,15 2.9848483,15 L0,15 L0,28.9920494 L4.19402129,28.9920494 C5.44666734,29.0587645 6.68489667,28.7040487 7.70252719,27.986967 C8.55747478,27.3425736 9.04006206,26.333267 8.99738961,25.2788284 C9.00056329,23.3896459 7.90564286,22.2077434 5.71262832,21.7331212 Z M1.09968095,15.8934065 L2.59924589,15.8934065 C5.23340228,15.8934065 6.55048047,16.8240384 6.55048047,18.685302 C6.55048047,20.5465656 5.24768385,21.4771975 2.6420906,21.4771975 L1.09968095,21.4771975 L1.09968095,15.8934065 Z M6.85991451,27.3262184 C6.04883401,27.8938087 5.06055489,28.1669849 4.06548716,28.0986429 L1.09968095,28.0986429 L1.09968095,22.3938698 L3.58467427,22.3938698 C6.40607793,22.3938698 7.81677975,23.3493185 7.81677975,25.2602158 C7.84590837,26.0559284 7.49171059,26.8189673 6.85991451,27.3215653 L6.85991451,27.3262184 Z" id="Fill-1" fill="#FFFFFF" fill-rule="nonzero"></path>
    </g>
</svg>
