<?xml version="1.0" encoding="UTF-8"?>
<svg viewBox="0 0 640 480" xmlns="http://www.w3.org/2000/svg">
 <g stroke-linecap="round" stroke-linejoin="round" stroke-width="7.087">
  <path d="m0.1983 1.0129v478.1h639.8v-478.1h-278.16c-8.5584 12.573-25.01 21.093-43.899 21.093-18.888 0-35.34-8.5196-43.899-21.093h-273.84zm34.526 25.487h20.5c4.1841 0 7.5525 2.7438 7.5525 6.1521v29.002c0 3.4082-3.3684 6.152-7.5525 6.152h-20.5c-4.1841 0-7.5525-2.7438-7.5525-6.152v-29.002c0-3.4082 3.3684-6.1521 7.5525-6.1521zm80.312 0h20.5c4.184 0 7.5525 2.7438 7.5525 6.1521v29.002c0 3.4082-3.3684 6.152-7.5525 6.152h-20.5c-4.1841 0-7.5525-2.7438-7.5525-6.152v-29.002c0-3.4082 3.3684-6.1521 7.5525-6.1521zm80.279 0h20.5c4.1841 0 7.5524 2.7438 7.5524 6.1521v29.002c0 3.4082-3.3684 6.152-7.5524 6.152h-20.5c-4.1841 0-7.5525-2.7438-7.5525-6.152v-29.002c0-3.4082 3.3684-6.1521 7.5525-6.1521zm80.312 0h20.5c4.1841 0 7.5525 2.7438 7.5525 6.1521v29.002c0 3.4082-3.3684 6.152-7.5525 6.152h-20.5c-4.184 0-7.5525-2.7438-7.5525-6.152v-29.002c0-3.4082 3.3684-6.1521 7.5525-6.1521zm80.312 0h20.5c4.184 0 7.5525 2.7438 7.5525 6.1521v29.002c0 3.4082-3.3684 6.152-7.5525 6.152h-20.5c-4.184 0-7.5524-2.7438-7.5524-6.152v-29.002c0-3.4082 3.3684-6.1521 7.5524-6.1521zm80.312 0h20.5c4.1841 0 7.5525 2.7438 7.5525 6.1521v29.002c0 3.4082-3.3684 6.152-7.5525 6.152h-20.5c-4.1841 0-7.5525-2.7438-7.5525-6.152v-29.002c0-3.4082 3.3684-6.1521 7.5525-6.1521zm80.279 0h20.5c4.1841 0 7.5525 2.7438 7.5525 6.1521v29.002c0 3.4082-3.3684 6.152-7.5525 6.152h-20.5c-4.184 0-7.5525-2.7438-7.5525-6.152v-29.002c0-3.4082 3.3684-6.1521 7.5525-6.1521zm80.312 0h20.5c4.1841 0 7.5526 2.7438 7.5526 6.1521v29.002c0 3.4082-3.3685 6.152-7.5526 6.152h-20.5c-4.184 0-7.5524-2.7438-7.5524-6.152v-29.002c0-3.4082 3.3684-6.1521 7.5524-6.1521zm-567.51 49.216h581.54c8.3681 0 15.105 5.4876 15.105 12.304v301.45c0 6.8165-6.7368 12.304-15.105 12.304h-581.54c-8.3681 0-15.105-5.4876-15.105-12.304v-301.45c0-6.8165 6.7368-12.304 15.105-12.304zm4.3157 335.73h20.5c4.1841 0 7.5525 2.7438 7.5525 6.152v29.002c0 3.4083-3.3684 6.152-7.5525 6.152h-20.5c-4.1841 0-7.5525-2.7438-7.5525-6.152v-29.002c0-3.4082 3.3684-6.152 7.5525-6.152zm80.312 0h20.5c4.1841 0 7.5525 2.7438 7.5525 6.152v29.002c0 3.4083-3.3684 6.152-7.5525 6.152h-20.5c-4.1841 0-7.5525-2.7438-7.5525-6.152v-29.002c0-3.4082 3.3684-6.152 7.5525-6.152zm80.279 0h20.5c4.1841 0 7.5525 2.7438 7.5525 6.152v29.002c0 3.4083-3.3684 6.152-7.5525 6.152h-20.5c-4.1841 0-7.5525-2.7438-7.5525-6.152v-29.002c0-3.4082 3.3684-6.152 7.5525-6.152zm80.312 0h20.5c4.184 0 7.5524 2.7438 7.5524 6.152v29.002c0 3.4083-3.3684 6.152-7.5524 6.152h-20.5c-4.184 0-7.5525-2.7438-7.5525-6.152v-29.002c0-3.4082 3.3684-6.152 7.5525-6.152zm80.312 0h20.5c4.184 0 7.5524 2.7438 7.5524 6.152v29.002c0 3.4083-3.3684 6.152-7.5524 6.152h-20.5c-4.1841 0-7.5525-2.7438-7.5525-6.152v-29.002c0-3.4082 3.3684-6.152 7.5525-6.152zm80.312 0h20.5c4.184 0 7.5524 2.7438 7.5524 6.152v29.002c0 3.4083-3.3684 6.152-7.5524 6.152h-20.5c-4.1841 0-7.5525-2.7438-7.5525-6.152v-29.002c0-3.4082 3.3684-6.152 7.5525-6.152zm80.279 0h20.5c4.184 0 7.5524 2.7438 7.5524 6.152v29.002c0 3.4083-3.3684 6.152-7.5524 6.152h-20.5c-4.184 0-7.5525-2.7438-7.5525-6.152v-29.002c0-3.4082 3.3684-6.152 7.5525-6.152zm80.312 0h20.5c4.184 0 7.5524 2.7438 7.5524 6.152v29.002c0 3.4083-3.3684 6.152-7.5524 6.152h-20.5c-4.1841 0-7.5525-2.7438-7.5525-6.152v-29.002c0-3.4082 3.3684-6.152 7.5525-6.152z" fill="#575757"/>
  <g fill="#2c2c2c">
   <path d="m208.19 1.0129v0.054931h-0.067444v12.112h-6.8444v-12.112h-7.6536v25.597c0.54366-0.10061 1.1038-0.16479 1.6858-0.16479h20.5c3.2034 0 5.9115 1.6164 7.013 3.9h7.5187v-29.387h-7.6536v11.727h-6.8444v-11.727h-7.6536zm158.06 0v25.487h10.182c3.2305 0 5.9636 1.6407 7.0467 3.9549h4.9226v-29.442h-7.6536v11.782h-6.8444v-11.782h-7.6537zm-365.72 0.0549v12.057h7.6199v-12.057h-7.6199zm40.426 0v25.432h14.262c3.4109 0 6.2715 1.8191 7.2153 4.3394h0.67432v-29.772h-7.6536v12.112h-6.8444v-12.112h-7.6536zm535.72 0v12.057h7.6199v-12.057h-7.6199zm40.426 0v25.432h0.23602c3.4108 0 6.2715 1.8191 7.2153 4.3394h14.7v-29.772h-7.6536v12.112h-6.8444v-12.112h-7.6536zm-600.93 0.3021v11.81h-7.6536v17.66h7.6536v-17.385h7.6199v17.715h3.6076c0.54395-1.798 2.0409-3.2819 4.046-4.0648v-25.734h-15.274zm576.15 0v11.81h-7.6536v17.66h4.9563c0.47436-1.2669 1.4257-2.3593 2.6973-3.131v-14.254h7.6199v13.046h7.6536v-25.13h-15.274zm-328.97 0.0275v12.084h7.6537v-12.084h-7.6537zm214.64 2.719c-4.0842 0.28193-6.2273 3.9266-6.0353 7.0309-0.42017 3.4439 1.3717 8.1841 6.6422 7.7175 5.6363-0.2916 6.8651-7.7483 1.8206-9.4753-1.7528-0.88585-6.5036 1.43-4.4506-1.6753 1.323-2.8115 7.3745 0.7221 6.4735-2.9936-1.1324-0.41004-2.3686-0.62372-3.6076-0.60421-0.28958-0.012136-0.57062-0.018801-0.8429 0zm11.7 0.0824c-1.0906 0.035449-2.1854 0.2817-3.1356 0.74155-1.2666 4.8593 4.0125-0.049852 6.0689 2.8563 1.6239 2.0602 1.5228 4.9222 0.40457 7.1133-1.1693 3.4426-6.5907-0.87579-6.5747 2.362 0.94074 2.6604 5.6884 1.777 7.8559 0.65914 3.3294-2.1608 3.5968-6.2335 2.5962-9.3654-0.54245-2.7854-3.9435-4.4732-7.2153-4.3669zm-349.07 2.1422c-1.2479 0.030553-2.4856 0.29849-3.4391 0.96126-2.3864 1.557-2.6578 5.0987 0.10117 6.4816-0.24162 0.78644-1.6883 2.201-1.3824 3.488-0.13358 2.0478 2.0003 3.8836 4.4843 3.9549 2.0836 0.38775 4.3497-0.54773 5.2597-2.1148 1.2465-1.6934 0.41412-4.37-2.0904-4.8887 1.2058-0.21516 2.1579-0.98917 2.6973-1.8676 1.5498-2.2788-0.5386-5.159-3.4053-5.8499-0.70055-0.13396-1.4766-0.18312-2.2253-0.16479zm-42.516 0.0549v3.6253h-21.309v5.7126h21.309v3.6253l6.8781-3.2408 6.8781-3.2408-6.8781-3.2408-6.8781-3.2408zm59.206 0.0275c-0.56593-0.00308-1.1388 0.087407-1.6521 0.27464-2.6272-0.45445-5.5847 0.78549-6.4736 2.8838-0.4641 1.1786-0.43985 2.8273 1.0115 3.5429 1.5366 0.378 1.495 1.8445 0.30342 2.5267-1.6806 1.0984-0.96541 3.3005 0.60689 4.2295 2.9542 1.6176 6.6317 0.83737 9.9464 1.0162 0.047562-2.1572-0.025223-4.3245-0.033737-6.4816-0.2798-1.9098 0.72871-3.8296 0.067429-5.7126-0.35748-1.4312-2.0784-2.2704-3.7762-2.2796zm-16.521 2.2521c0.95207-0.018632 1.913 0.36855 2.3264 1.181 1.0606 1.2989-0.050476 3.3819-2.0904 3.1859-1.9404 0.1782-3.1043-1.6917-2.3939-3.0211 0.27902-0.89456 1.2058-1.3271 2.1579-1.3458zm14.127 0.1373c2.5513-0.049185 3.8701 2.6462 2.8322 4.3394-1.3289 0.40664-2.9388 0.2765-4.0797-0.43943-2.0617-1.0519-1.0933-3.7522 1.2475-3.9zm196.77 2.6366c-0.37207 0.27626-0.76416 0.5293-1.1463 0.79648v16.067c1.3676-1.1283 3.2852-1.8127 5.3946-1.8127h2.259v-15.05h-6.5073zm126.27 0.0824c2.7085 0.16075 3.1431 3.6854 1.18 4.8338-3.8747 1.6239-5.1071-4.5787-1.18-4.8338zm-238.54 1.2359v17.687h7.6536v-17.687h-7.6536zm15.88 0v17.687h7.6536v-17.687h-7.6536zm15.88 0v14.913c1.2479-0.74227 2.7802-1.181 4.4505-1.181h3.2031v-13.732h-7.6536zm15.88 0.6317v13.101h7.6537v-9.0633c-2.7081-1.1571-5.265-2.5118-7.6537-4.0373zm-131.39 1.8676c1.9434 0.01831 3.2743 2.0556 2.0904 3.3781-1.1267 0.24732-2.3947 0.19502-3.4391-0.24718-2.2241-0.65038-1.1425-3.1218 0.94405-3.1035 0.13448-0.017529 0.27504-0.028684 0.40462-0.027457zm-14.7 0.0824c1.1206-0.12929 2.3579 0.71006 2.2253 1.7303 0.20241 1.3631-1.7542 2.0804-3.1356 1.6753-1.7519-0.36155-1.3068-2.2406-0.10115-2.9112 0.29027-0.28812 0.63794-0.45126 1.0115-0.49436zm201.35 1.5929c-2.4377 1.1086-4.9874 2.0598-7.6536 2.8288v10.244h7.6536v-13.073zm-39.381 3.2957v9.7774h7.6199v-8.3492c-2.608-0.3143-5.1588-0.7996-7.6199-1.4282zm23.5 1.2908c-2.4777 0.34457-5.0325 0.5403-7.6198 0.57677v7.9098h7.6198v-8.4865z"/>
   <path d="m0.1983 35.289v19.335h26.973v-19.335h-26.973zm62.578 0v19.335h44.708v-19.335h-44.708zm80.312 0v19.335h44.674v-19.335h-44.674zm80.279 0v19.335h44.708v-19.335h-44.708zm80.312 0v19.335h44.708v-19.335h-44.708zm80.312 0v19.335h44.708v-19.335h-44.708zm80.312 0v19.335h44.674v-19.335h-44.674zm80.279 0v19.335h44.708v-19.335h-44.708zm80.312 0v19.335h15.105v-19.335h-15.105z"/>
   <path d="m0.1983 420.09v19.884h25.894v-19.884h-25.894zm61.499 0v19.884h44.708v-19.884h-44.708zm80.312 0v19.884h44.674v-19.884h-44.674zm80.279 0v19.884h44.708v-19.884h-44.708zm80.312 0v19.884h44.708v-19.884h-44.708zm80.312 0v19.884h44.708v-19.884h-44.708zm80.312 0v19.884h44.674v-19.884h-44.674zm80.279 0v19.884h44.708v-19.884h-44.708zm80.312 0v19.884h16.184v-19.884h-16.184z"/>
   <rect x="385.14" y="656.24" width="0" height="2.8402"/>
   <path d="m5.4917 456.76v22.356h15.24v-22.356h-15.24zm22.118 0v22.356h9.9126v-22.356h-9.9126zm148.01 0v22.356h15.24v-22.356h-15.24zm22.118 0v22.356h9.9126v-22.356h-9.9126zm15.577 0v22.356h9.9126v-22.356h-9.9126zm205 0v22.356h9.9126v-22.356h-9.9126zm15.105 0v22.356h9.9126v-22.356h-9.9126zm14.566 0v22.356h15.24v-22.356h-15.24zm37.223 0v22.356h9.9126v-22.356h-9.9126zm15.105 0v22.356h9.9126v-22.356h-9.9126zm15.105 0v22.356h9.9126v-22.356h-9.9126zm84.156 0v22.356h9.9126v-22.356h-9.9126zm16.251 0v22.356h15.24v-22.356h-15.24z"/>
  </g>
 </g>
 <path d="m131.51 464.78c1.7651 0.11926 2.9927-1.6206 2.3017-2.8756-0.60988-1.3925-3.2637-1.7397-4.2752-0.46118-0.98521 1.0871-0.44298 3.0093 1.3183 3.2823 0.214 0.042084 0.43509 0.060791 0.6552 0.054413m2.4213 1.1258c2.1955 0.47232 3.1376 2.7092 2.2859 4.3242-0.65173 1.3869-2.4531 2.23-4.2344 2.2366-2.1094 0.177-4.5997-0.61209-5.2495-2.3939-0.63851-1.4754 0.034454-3.445 1.936-4.0445 0.28044-0.47235-1.2995-0.44504-1.4573-1.0286-2.0277-1.8109-1.229-5.2196 1.642-6.1167 2.2927-0.62775 5.2269-0.57104 6.9592 0.97562 1.6818 1.6301 1.4824 4.5124-0.8378 5.6838-0.32564 0.159-0.67816 0.28101-1.044 0.3635zm-0.3427 2.7288c0.21863-1.3855-2.1168-2.2901-3.3858-1.4164-1.2814 0.77472-0.98349 2.7619 0.66556 3.0563 1.2745 0.34412 2.8812-0.4809 2.7202-1.6399zm-13.422-3.7465v-3.9807c-1.4609 0.098541-3.1523-0.2977-4.4023 0.50537-0.87004 0.83307-0.78555 2.2462 0.14855 3.0147 1.2258 0.75153 2.8437 0.36227 4.2538 0.4606zm0 5.2415c-0.26484-0.98776 0.46249-2.0916-0.26431-2.9942-1.1354-0.19669-2.6865-0.32858-3.7253 0.30707-1.001 0.81308-0.4236 2.5971 1.1008 2.6421 0.95867 0.10443 1.9263 0.010834 2.8887 0.045044zm3.151 2.1165c-2.8504-0.11938-5.8022 0.32166-8.5656-0.42786-1.4746-0.49487-2.4337-1.7796-2.3007-3.074-0.014542-1.2418 1.0331-2.579 2.6525-2.6844 0.38997-0.29334-1.1389-0.18509-1.3917-0.54221-1.4162-0.69095-2.0096-2.105-1.8372-3.3953 0.06488-1.3066 1.0541-2.6758 2.7101-2.965 2.6288-0.69577 5.415-0.19421 8.111-0.41873 1.3532 0.51688 0.26498 1.9977 0.62162 2.9342v10.573z"/>
 <path d="m369.86 471.35c-3.6392 0.5445-2.7372-3.5956-5.0406-4.6638-3.3636-0.66836-1.9373 4.883-5.1699 3.7898-2.114-1.7159-0.21765-4.0249-0.25729-6.0272-0.011963-1.8999-0.71838-3.8715 0.12924-5.7173 2.6371-1.6244 4.4035 2.1455 2.8488 3.5778 0.92084 2.7363 6.15 0.32251 3.6182-1.6982-0.19074-2.9469 5.533-2.0745 3.9771 0.6669-0.13736 2.8364-0.4183 5.6754-0.096741 8.5097 0.007721 0.52072 0.00708 1.0416-0.008881 1.5622zm-24.246-13.446h10.282v13.446c-3.4274 3.05e-4 -6.8549 0-10.282 0-0.16083-2.9598 4.708-1.8869 6.3845-3.3314 1.1907-3.1062-5.8206-1.0389-4.8685-3.4514 1.3562-1.7165 6.1885 0.23206 5.1519-2.9067-0.85434-2.4077-3.9157-1.2511-5.8259-1.7375-0.89697-0.35278-1.5828-1.2961-0.84207-2.0191zm-3.5601 2.3416c-2.9399-0.66553-4.4742 2.2407-4.4553 4.1914-0.46133 2.387 3.0288 3.4867 3.0711 5.6158-0.5452 2.8092-5.6461 1.5988-5.5714-0.85941-0.47662-2.7004 1.6897-5.7606-0.5954-8.1921-3.3296-0.86404-0.97327-4.5865 1.9303-3.2458 2.064-0.074036 6.1414-0.031494 5.6207 2.49zm-16.982 4.368c-1.2216 2.1045-2.3106-2.2493-0.4043-0.69882 0.16422 0.20587 0.44434 0.42291 0.4043 0.69882zm-1.3709 4.7282c2.753-1.4018 1.8847-4.3913 2.785-6.5603 0.15478-2.3626-5.3394-2.496-5.1254-0.048553 0.47574 2.2224-0.64474 5.2419 2.3404 6.6089zm5.4507-4.7282c0.4552 2.7908-1.0823 6.3881-4.8355 7.003-3.2449 0.25766-6.2793-2.3171-5.8991-4.9427-0.68072-3.038-0.19949-6.7532 3.0946-8.7056 3.3042-1.3065 7.5356 1.0779 7.4058 4.0321 0.17648 0.8631 0.21939 1.7397 0.23416 2.6131zm-17.701 0c-1.2216 2.1045-2.3106-2.2493-0.40436-0.69882 0.16428 0.20587 0.4444 0.42297 0.40436 0.69882zm-1.371 4.7282c2.7531-1.4018 1.8848-4.3913 2.785-6.5603 0.15482-2.3626-5.3394-2.496-5.1253-0.048553 0.47568 2.2224-0.64478 5.2419 2.3403 6.6089zm5.4507-4.7282c0.45523 2.7908-1.0823 6.3881-4.8354 7.003-3.2449 0.25766-6.2794-2.3171-5.899-4.9427-0.68082-3.038-0.19955-6.7532 3.0945-8.7056 3.3042-1.3065 7.5355 1.078 7.4058 4.0321 0.17651 0.86316 0.21942 1.7397 0.2341 2.6132z"/>
 <path d="m83.285 449.39c2.1153-0.95282 5.0329-0.95599 6.8794 0.41879 1.5807 1.3103 1.7938 3.3447 1.2746 5.0537-0.48096 1.4738-2.0784 2.6846-3.9674 2.8325-1.295 0.16373-2.6389-0.02002-3.8272-0.46033-0.64536-0.47641-0.47755-1.6653-0.09906-1.9916 1.2309 0.65631 2.9734 1.0074 4.2565 0.24463 1.0811-0.70276 1.205-1.9647 1.0143-3.0039-0.1617-0.88406-0.93806-1.7232-2.0687-1.8664-0.91556-0.15598-1.8865 0.005707-2.699 0.37039-0.80448 0.74854-0.90559-0.32938-0.7635-0.8371 0.002945-0.25357 0.005692-0.50711 6.1e-5 -0.76068zm-11.575 0c2.1153-0.95282 5.0329-0.95599 6.8794 0.41879 1.5807 1.3103 1.7938 3.3447 1.2746 5.0537-0.48098 1.4738-2.0784 2.6846-3.9674 2.8325-1.295 0.16373-2.6389-0.02002-3.8272-0.46033-0.64536-0.47641-0.47754-1.6653-0.09906-1.9916 1.2308 0.65631 2.9734 1.0074 4.2565 0.24463 1.0811-0.70276 1.205-1.9647 1.0143-3.0039-0.16171-0.88406-0.93804-1.7232-2.0687-1.8664-0.91556-0.15598-1.8865 0.005707-2.6989 0.37039-0.80448 0.74854-0.90559-0.32938-0.7635-0.8371 0.00293-0.25357 0.005676-0.50711 6.9e-5 -0.76068z"/>
 <path d="m253.76 449.39c2.1153-0.95282 5.0329-0.95599 6.8794 0.41879 1.5807 1.3103 1.7938 3.3447 1.2745 5.0537-0.48093 1.4738-2.0783 2.6846-3.9674 2.8325-1.295 0.16373-2.6389-0.02002-3.8272-0.46033-0.64539-0.47641-0.47751-1.6653-0.099045-1.9916 1.2308 0.65631 2.9734 1.0074 4.2565 0.24463 1.0811-0.70276 1.2049-1.9647 1.0142-3.0039-0.16171-0.88406-0.93805-1.7232-2.0687-1.8664-0.91556-0.15598-1.8865 0.005707-2.699 0.37039-0.80444 0.74854-0.90553-0.32938-0.7635-0.8371 0.00296-0.25357 0.005692-0.50711 1.07e-4 -0.76068zm-11.575 0c2.1154-0.95282 5.0329-0.95599 6.8795 0.41879 1.5807 1.3103 1.7938 3.3447 1.2746 5.0537-0.48099 1.4738-2.0784 2.6846-3.9674 2.8325-1.295 0.16373-2.6389-0.02002-3.8272-0.46033-0.64534-0.47641-0.47755-1.6653-0.099045-1.9916 1.2308 0.65631 2.9734 1.0074 4.2564 0.24463 1.0811-0.70276 1.205-1.9647 1.0144-3.0039-0.16173-0.88406-0.93808-1.7232-2.0687-1.8664-0.91559-0.15598-1.8865 0.005707-2.6989 0.37039-0.8045 0.74854-0.90562-0.32938-0.76349-0.8371 0.00293-0.25357 0.005661-0.50711 3.1e-5 -0.76068z"/>
</svg>
