<?xml version="1.0" encoding="UTF-8" standalone="no"?>
<!DOCTYPE svg PUBLIC "-//W3C//DTD SVG 1.1//EN" "http://www.w3.org/Graphics/SVG/1.1/DTD/svg11.dtd">
<svg width="100%" height="100%" viewBox="0 0 951 408" version="1.1" xmlns="http://www.w3.org/2000/svg" xmlns:xlink="http://www.w3.org/1999/xlink" xml:space="preserve" xmlns:serif="http://www.serif.com/" style="fill-rule:evenodd;clip-rule:evenodd;stroke-linejoin:round;stroke-miterlimit:2;">
    <g id="path2633" transform="matrix(1,0,0,1,-9,-8)">
        <path d="M25.915,398.441L25.915,25.559L942.674,25.559L942.674,398.441L25.915,398.441ZM956.234,12L12.355,12L12.355,412L956.234,412" style="fill:rgb(32,28,28);fill-rule:nonzero;"/>
    </g>
    <g id="path2637" transform="matrix(1,0,0,1,-9,-8)">
        <path d="M214.54,154.222L214.54,75.88L740.34,75.88L740.34,154.222L753.899,154.222L753.899,62.32L200.98,62.32L200.98,154.222" style="fill:rgb(32,28,28);fill-rule:nonzero;"/>
    </g>
    <g id="path2639" transform="matrix(1,0,0,1,-9,-8)">
        <path d="M200.98,269.025L200.98,360.924L753.899,360.924L753.899,269.025L740.34,269.025L740.34,347.365L214.54,347.365L214.54,269.025" style="fill:rgb(32,28,28);fill-rule:nonzero;"/>
    </g>
    <g id="path2641" transform="matrix(1,0,0,1,-9,-8)">
        <path d="M364.295,154.222L364.27,148.619C364.158,132.855 364.158,132.855 383.475,130.413L387.319,129.923C423.361,125.294 532.709,124.531 569.352,129.911L577.203,131.006C591.529,132.94 591.529,132.94 591.384,147.134L591.338,154.222L601.585,154.222L601.627,147.238C601.846,125.952 599.907,123.732 578.574,120.853L570.84,119.775C533.595,114.306 422.574,115.067 386.016,119.763L382.189,120.249C357.059,123.426 353.855,124.752 354.024,148.691L354.05,154.222" style="fill:rgb(32,28,28);fill-rule:nonzero;"/>
    </g>
    <g id="path2643" transform="matrix(1,0,0,1,-9,-8)">
        <path d="M354.05,268.723L354.024,274.253C353.855,298.192 357.059,299.518 382.189,302.696L386.016,303.182C422.574,307.878 533.595,308.638 570.84,303.168L578.574,302.091C599.907,299.213 601.846,296.993 601.627,275.706L601.585,268.723L591.338,268.723L591.384,275.81C591.529,290.004 591.529,290.004 577.203,291.939L569.352,293.034C532.712,298.413 423.361,297.65 387.319,293.021L383.475,292.531C364.158,290.09 364.158,290.09 364.27,274.324L364.295,268.723" style="fill:rgb(32,28,28);fill-rule:nonzero;"/>
    </g>
    <g id="path2645" transform="matrix(1,0,0,1,-9,-8)">
        <path d="M471.674,171.076L487.724,171.076L495.418,220.64L540.114,171.271L559.902,171.179L485.374,253.033" style="fill:rgb(32,28,28);fill-rule:nonzero;"/>
    </g>
    <g id="path2647" transform="matrix(1,0,0,1,-9,-8)">
        <path d="M668.036,189.274L668.994,186.757L637.357,186.757L630.768,204.193L679.06,204.193L660.366,252.663L595.538,252.663L602.727,234.929L619.385,234.929L618.425,237.324L649.822,237.324L656.531,219.711L608.479,219.711L626.813,171.179L691.522,171.179L684.69,189.274" style="fill:rgb(32,28,28);fill-rule:nonzero;"/>
    </g>
    <g id="path2649" transform="matrix(1,0,0,1,-9,-8)">
        <path d="M369.66,171.179L386.675,171.179L353.481,252.663L338.982,252.663L319.93,210.962L303.395,252.663L286.738,252.663L319.33,170.699L345.693,230.615" style="fill:rgb(32,28,28);fill-rule:nonzero;"/>
    </g>
    <g id="path2651" transform="matrix(1,0,0,1,-9,-8)">
        <path d="M578.317,171.426L594.853,171.426L562.974,252.663L546.317,252.663" style="fill:rgb(32,28,28);fill-rule:nonzero;"/>
    </g>
    <g id="path2653" transform="matrix(1,0,0,1,-9,-8)">
        <path d="M720.69,171.426L737.226,171.426L705.347,252.663L688.689,252.663" style="fill:rgb(32,28,28);fill-rule:nonzero;"/>
    </g>
    <g id="path2655" transform="matrix(1,0,0,1,-9,-8)">
        <path d="M915.41,171.059L932.426,171.059L899.235,252.545L884.736,252.545L865.68,210.842L849.143,252.545L832.487,252.545L865.084,170.579L891.445,230.496" style="fill:rgb(32,28,28);fill-rule:nonzero;"/>
    </g>
    <g id="path2657" transform="matrix(1,0,0,1,-9,-8)">
        <path d="M168.917,214.146L180.403,185.438L120.326,185.425L109.002,214.146L168.917,214.146ZM77.109,252.663L86.192,229.491L37.444,229.491L42.928,214.146L92.393,214.146L109.679,171.201L202.81,171.201L179.564,229.536L102.753,229.536L93.646,252.663" style="fill:rgb(32,28,28);fill-rule:nonzero;"/>
    </g>
    <g id="path2659" transform="matrix(1,0,0,1,-9,-8)">
        <path d="M250.096,219.888L247.835,201.056L230.69,219.636L250.096,219.888ZM180.267,252.707L258.131,168.162L271.439,252.53L255.62,252.53L252.607,235.456L216.197,235.456L200.629,252.53" style="fill:rgb(32,28,28);fill-rule:nonzero;"/>
    </g>
    <g id="path2661" transform="matrix(1,0,0,1,-9,-8)">
        <path d="M436.913,219.888L434.653,201.056L417.507,219.636L436.913,219.888ZM367.083,252.707L444.948,168.162L458.256,252.53L442.437,252.53L439.424,235.456L403.014,235.456L387.446,252.53" style="fill:rgb(32,28,28);fill-rule:nonzero;"/>
    </g>
    <g id="path2663" transform="matrix(1,0,0,1,-9,-8)">
        <path d="M759.082,237.205L793.472,237.205L813.867,186.516L779.598,186.516L759.082,237.205ZM736.434,252.663L768.931,171.059L836.396,171.059L804.019,252.663" style="fill:rgb(32,28,28);fill-rule:nonzero;"/>
    </g>
</svg>
