<?xml version="1.0" encoding="UTF-8"?>
<svg width="220px" height="30px" viewBox="0 0 220 30" version="1.1" xmlns="http://www.w3.org/2000/svg" xmlns:xlink="http://www.w3.org/1999/xlink">
    <!-- Generator: Sketch 45.2 (43514) - http://www.bohemiancoding.com/sketch -->
    <title>Phantom Logo</title>
    <desc>Created with Sketch.</desc>
    <defs></defs>
    <g id="Symbols" stroke="none" stroke-width="1" fill="none" fill-rule="evenodd">
        <g id="Components-/-Footer-/-Desktop" transform="translate(-188.000000, -202.000000)">
            <g id="Elements-/-Logo-/-Phantom-/-KO" transform="translate(188.000000, 202.000000)">
                <g id="Phantom-Logo-01" transform="translate(0.000000, 0.461538)">
                    <g id="Phantom_type_x005F_REGULAR_1_" transform="translate(56.833333, 7.384615)" fill-rule="nonzero" fill="#FFFFFF">
                        <path d="M131.129167,0.138461538 L150.883333,0.138461538 C151.570833,0.184615385 152.258333,0.415384615 152.9,1.29230769 C153.541667,2.21538462 153.816667,3.18461538 153.816667,4.47692308 L153.816667,17.2153846 L149.645833,17.2153846 L149.645833,3.78461538 L144.604167,3.78461538 L144.604167,17.2615385 L140.341667,17.2615385 L140.341667,3.78461538 L135.3,3.78461538 L135.3,17.2153846 L131.129167,17.2153846 L131.129167,0.138461538 Z" id="regular_M_1_"></path>
                        <path d="M126.133333,1.43076923 C126.683333,2.16923077 127.004167,3.27692308 127.004167,4.56923077 L127.004167,12.9230769 C126.958333,14.2615385 126.775,15.1384615 126.0875,16.0615385 C125.445833,16.9846154 124.7125,17.2615385 123.979167,17.2615385 L112.154167,17.2615385 C111.2375,17.2615385 110.595833,16.8 110,15.9692308 C109.358333,15.0461538 109.129167,13.9846154 109.129167,12.8769231 L109.129167,4.52307692 C109.129167,3.23076923 109.45,2.26153846 110,1.43076923 C110.595833,0.6 111.283333,0.138461538 112.154167,0.138461538 L123.933333,0.138461538 C124.85,0.138461538 125.491667,0.553846154 126.133333,1.43076923 Z M122.833333,3.78461538 L113.345833,3.78461538 L113.345833,13.5692308 L122.879167,13.5692308 L122.833333,3.78461538 Z" id="regular_O_1_"></path>
                        <polygon id="regular_T_1_" points="105.004167 3.78461538 98.2208333 3.78461538 98.2208333 17.2153846 94.0958333 17.2153846 94.0958333 3.78461538 87.3125 3.78461538 87.3125 0.0923076923 105.004167 0.0923076923"></polygon>
                        <path d="M79.0166667,12.2307692 C79.0166667,12.2307692 72.2333333,2.81538462 71.3625,1.61538462 C70.4916667,0.415384615 69.025,0.138461538 69.025,0.138461538 L65.45,0.138461538 L65.45,12.7384615 C65.45,12.7384615 65.45,14.6769231 66.3666667,15.9692308 C67.2833333,17.2615385 68.5208333,17.2615385 68.5208333,17.2615385 L69.6208333,17.2615385 L69.6208333,5.76923077 C69.6208333,5.76923077 76.0833333,14.4 77.1375,15.9230769 C78.1916667,17.4 79.1083333,17.3076923 79.1083333,17.3076923 L83.1875,17.3076923 L83.1875,0.184615385 L79.0166667,0.184615385 L79.0166667,12.2307692 Z" id="Shape"></path>
                        <path d="M47.6666667,17.2615385 L43.45,17.2615385 L43.4958333,4.38461538 C43.5416667,3.36923077 43.725,2.30769231 44.3666667,1.38461538 C45.0083333,0.461538462 45.6958333,0.0923076923 46.7041667,0.0923076923 L57.75,0.0923076923 C58.8958333,0.0923076923 59.5833333,0.323076923 60.3166667,1.29230769 C61.0041667,2.16923077 61.1875,3.32307692 61.1875,4.70769231 L61.1875,17.2153846 L57.0625,17.2153846 L57.0625,12.7384615 L47.6208333,12.7384615 L47.6666667,17.2615385 Z M47.6666667,3.78461538 L47.6666667,9.18461538 L57.1541667,9.18461538 L57.1541667,3.73846154 L47.6666667,3.73846154 L47.6666667,3.78461538 Z" id="regular_A_1_"></path>
                        <polygon id="regular_H_1_" points="39.4166667 0.138461538 39.4166667 17.2615385 35.2916667 17.2615385 35.2916667 12.7846154 26.1708333 12.7846154 26.1708333 17.3076923 22.0458333 17.3076923 22.0458333 0.184615385 26.2166667 0.184615385 26.2166667 9.27692308 35.2916667 9.27692308 35.2916667 0.184615385"></polygon>
                        <path d="M4.35416667,17.2615385 L0.183333333,17.2615385 L0.183333333,0.138461538 L14.3916667,0.0923076923 C15.4,0.0923076923 16.1791667,0.553846154 16.8666667,1.47692308 C17.4625,2.26153846 17.7833333,3.13846154 17.7833333,4.43076923 L17.7833333,8.53846154 C17.7833333,9.83076923 17.4166667,10.6615385 16.6833333,11.5846154 C15.95,12.5076923 15.3083333,12.7384615 14.2541667,12.7384615 L7.47083333,12.7384615 L7.51666667,9.23076923 L13.6125,9.23076923 L13.6125,3.83076923 L4.2625,3.83076923 L4.35416667,17.2615385 Z" id="regular_P_1_"></path>
                    </g>
                    <g id="Group" transform="translate(0.000000, 2.769231)" fill-rule="nonzero">
                        <path d="M19.25,3.09230769 C7.24166667,4.33846154 1.05416667,12.2307692 0,13.3846154 C6.37083333,24.3230769 17.6458333,23.5384615 17.6458333,23.5384615 L18.8375,16.7538462 C18.8375,16.7538462 18.9291667,16.0615385 18.3791667,16.1538462 C18.0125,16.1538462 13.9333333,16.1538462 13.9333333,16.1538462 C13.9333333,16.1538462 12.925,16.2 13.1541667,14.8615385 C13.2,14.6769231 14.025,9.13846154 19.25,3.09230769 Z" id="Shape" fill="#95358C"></path>
                        <path d="M17.875,23.8153846 C17.875,23.8153846 17.5541667,25.5692308 17.4625,26.2153846 C34.2833333,27.3692308 45.1916667,14.7692308 46.3375,13.3846154 C46.2458333,13.2 40.3333333,-0.276923077 22.5958333,0.369230769 C21.725,1.01538462 20.5333333,2.03076923 19.8916667,2.81538462 C33.7791667,2.07692308 38.9583333,12.3230769 39.4625,13.3846154 C30.3875,24.3230769 17.875,23.8153846 17.875,23.8153846 Z" id="Shape" fill="#FFFFFF"></path>
                        <path d="M22.9625,9.69230769 C22.9625,9.69230769 22.3208333,10.4769231 21.9541667,12.6 C23.2833333,12.3692308 24.9791667,12.0461538 25.8041667,11.8153846 C26.5375,11.6307692 26.9041667,11.1692308 27.0875,10.7076923 C27.2708333,10.1538462 27.3625,9.69230769 27.3625,9.69230769 L22.9625,9.69230769 Z" id="Shape" fill="#95358C"></path>
                    </g>
                    <path d="M215.325,2.30769231 C215.325,0.969230769 216.379167,0 217.6625,0 C218.9,0 220,0.969230769 220,2.30769231 C220,3.64615385 218.945833,4.61538462 217.6625,4.61538462 C216.425,4.66153846 215.325,3.64615385 215.325,2.30769231 Z M217.6625,4.24615385 C218.716667,4.24615385 219.541667,3.41538462 219.541667,2.30769231 C219.541667,1.2 218.716667,0.369230769 217.6625,0.369230769 C216.608333,0.369230769 215.783333,1.2 215.783333,2.30769231 C215.783333,3.41538462 216.608333,4.24615385 217.6625,4.24615385 Z M217.204167,3.64615385 L216.791667,3.64615385 L216.791667,0.969230769 L217.8,0.969230769 C218.441667,0.969230769 218.716667,1.2 218.716667,1.75384615 C218.716667,2.21538462 218.395833,2.44615385 218.029167,2.49230769 L218.7625,3.69230769 L218.304167,3.69230769 L217.616667,2.53846154 L217.158333,2.53846154 L217.158333,3.64615385 L217.204167,3.64615385 Z M217.6625,2.16923077 C217.983333,2.16923077 218.304167,2.12307692 218.304167,1.75384615 C218.304167,1.43076923 217.983333,1.38461538 217.708333,1.38461538 L217.158333,1.38461538 L217.158333,2.21538462 L217.6625,2.21538462 L217.6625,2.16923077 Z" id="Shape" fill="#FFFFFF" fill-rule="nonzero"></path>
                </g>
            </g>
        </g>
    </g>
</svg>