<?xml version="1.0" encoding="UTF-8" standalone="no"?>
<!DOCTYPE svg PUBLIC "-//W3C//DTD SVG 1.1//EN" "http://www.w3.org/Graphics/SVG/1.1/DTD/svg11.dtd">
<svg width="100%" height="100%" viewBox="0 0 212 27" version="1.1" xmlns="http://www.w3.org/2000/svg" xmlns:xlink="http://www.w3.org/1999/xlink" xml:space="preserve" xmlns:serif="http://www.serif.com/" style="fill-rule:evenodd;clip-rule:evenodd;stroke-linejoin:round;stroke-miterlimit:2;">
    <g transform="matrix(1,0,0,1,0,-2.53846)">
        <g id="Symbols">
            <g id="Components---Footer---Desktop" serif:id="Components-/-Footer-/-Desktop">
                <g id="Elements---Logo---Phantom---KO" serif:id="Elements-/-Logo-/-Phantom-/-KO">
                    <g id="Phantom-Logo-01">
                        <g id="Phantom_type_x005F_REGULAR_1_" transform="matrix(1,0,0,1,56.8333,7.38462)">
                            <path id="regular_M_1_" d="M131.129,0.138L150.883,0.138C151.571,0.185 152.258,0.415 152.9,1.292C153.542,2.215 153.817,3.185 153.817,4.477L153.817,17.215L149.646,17.215L149.646,3.785L144.604,3.785L144.604,17.262L140.342,17.262L140.342,3.785L135.3,3.785L135.3,17.215L131.129,17.215L131.129,0.138Z" style="fill:white;fill-rule:nonzero;"/>
                            <path id="regular_O_1_" d="M126.133,1.431C126.683,2.169 127.004,3.277 127.004,4.569L127.004,12.923C126.958,14.262 126.775,15.138 126.088,16.062C125.446,16.985 124.713,17.262 123.979,17.262L112.154,17.262C111.238,17.262 110.596,16.8 110,15.969C109.358,15.046 109.129,13.985 109.129,12.877L109.129,4.523C109.129,3.231 109.45,2.262 110,1.431C110.596,0.6 111.283,0.138 112.154,0.138L123.933,0.138C124.85,0.138 125.492,0.554 126.133,1.431ZM122.833,3.785L113.346,3.785L113.346,13.569L122.879,13.569L122.833,3.785Z" style="fill:white;fill-rule:nonzero;"/>
                            <path id="regular_T_1_" d="M105.004,3.785L98.221,3.785L98.221,17.215L94.096,17.215L94.096,3.785L87.313,3.785L87.313,0.092L105.004,0.092L105.004,3.785Z" style="fill:white;fill-rule:nonzero;"/>
                            <path id="Shape" d="M79.017,12.231C79.017,12.231 72.233,2.815 71.363,1.615C70.492,0.415 69.025,0.138 69.025,0.138L65.45,0.138L65.45,12.738C65.45,12.738 65.45,14.677 66.367,15.969C67.283,17.262 68.521,17.262 68.521,17.262L69.621,17.262L69.621,5.769C69.621,5.769 76.083,14.4 77.138,15.923C78.192,17.4 79.108,17.308 79.108,17.308L83.188,17.308L83.188,0.185L79.017,0.185L79.017,12.231Z" style="fill:white;fill-rule:nonzero;"/>
                            <path id="regular_A_1_" d="M47.667,17.262L43.45,17.262L43.496,4.385C43.542,3.369 43.725,2.308 44.367,1.385C45.008,0.462 45.696,0.092 46.704,0.092L57.75,0.092C58.896,0.092 59.583,0.323 60.317,1.292C61.004,2.169 61.188,3.323 61.188,4.708L61.188,17.215L57.063,17.215L57.063,12.738L47.621,12.738L47.667,17.262ZM47.667,3.738L47.667,9.185L57.154,9.185L57.154,3.738L47.667,3.738Z" style="fill:white;fill-rule:nonzero;"/>
                            <path id="regular_H_1_" d="M39.417,0.138L39.417,17.262L35.292,17.262L35.292,12.785L26.171,12.785L26.171,17.308L22.046,17.308L22.046,0.185L26.217,0.185L26.217,9.277L35.292,9.277L35.292,0.185L39.417,0.138Z" style="fill:white;fill-rule:nonzero;"/>
                            <path id="regular_P_1_" d="M4.354,17.262L0.183,17.262L0.183,0.138L14.392,0.092C15.4,0.092 16.179,0.554 16.867,1.477C17.463,2.262 17.783,3.138 17.783,4.431L17.783,8.538C17.783,9.831 17.417,10.662 16.683,11.585C15.95,12.508 15.308,12.738 14.254,12.738L7.471,12.738L7.517,9.231L13.613,9.231L13.613,3.831L4.263,3.831L4.354,17.262Z" style="fill:white;fill-rule:nonzero;"/>
                        </g>
                        <g id="Group" transform="matrix(1,0,0,1,0,2.76923)">
                            <path id="Shape1" serif:id="Shape" d="M19.25,3.092C7.242,4.338 1.054,12.231 0,13.385C6.371,24.323 17.646,23.538 17.646,23.538L18.838,16.754C18.838,16.754 18.929,16.062 18.379,16.154L13.933,16.154C13.933,16.154 12.925,16.2 13.154,14.862C13.2,14.677 14.025,9.138 19.25,3.092Z" style="fill:rgb(149,53,140);fill-rule:nonzero;"/>
                            <path id="Shape2" serif:id="Shape" d="M17.875,23.815C17.875,23.815 17.554,25.569 17.463,26.215C34.283,27.369 45.192,14.769 46.338,13.385C46.246,13.2 40.333,-0.277 22.596,0.369C21.725,1.015 20.533,2.031 19.892,2.815C33.779,2.077 38.958,12.323 39.463,13.385C30.388,24.323 17.875,23.815 17.875,23.815Z" style="fill:white;fill-rule:nonzero;"/>
                            <path id="Shape3" serif:id="Shape" d="M22.962,9.692C22.962,9.692 22.321,10.477 21.954,12.6C23.283,12.369 24.979,12.046 25.804,11.815C26.538,11.631 26.904,11.169 27.087,10.708C27.271,10.154 27.363,9.692 27.363,9.692L22.962,9.692Z" style="fill:rgb(149,53,140);fill-rule:nonzero;"/>
                        </g>
                    </g>
                </g>
            </g>
        </g>
    </g>
</svg>
